<svg width="173" height="161" viewBox="0 0 173 161" fill="none" xmlns="http://www.w3.org/2000/svg">
<path fill-rule="evenodd" clip-rule="evenodd" d="M65.498 0.992265C56.1873 2.10287 49.9004 3.07161 44.0414 4.34597C41.9618 4.79479 38.9369 5.38547 37.3064 5.64527C32.3441 6.44924 31.6823 6.89773 31.4933 9.47374C31.3278 11.8146 33.1005 35.1874 33.8563 40.5736C34.4237 44.4958 35.5343 59.3362 35.2978 59.7143C35.2503 59.8086 35.7706 66.6144 36.4795 74.8614C37.1885 83.1084 38.9814 104.093 40.4721 121.509C41.9628 138.925 43.3072 154.804 43.473 156.789C43.7092 159.744 43.8275 160.381 44.0873 160.287C46.734 159.271 56.6354 157.64 66.0196 156.672C71.7381 156.081 89.3668 156.081 95.7942 156.672C98.2756 156.908 102.458 157.239 105.128 157.428C107.799 157.641 112.052 158.067 114.604 158.373C117.156 158.704 119.377 158.964 119.566 158.964C120.251 158.964 120.724 158.35 121.078 157.026C121.267 156.293 123.228 152.087 125.45 147.692C128.073 142.517 129.442 139.539 129.373 139.232C129.32 138.325 129.36 137.414 129.491 136.515C129.609 135.286 129.751 128.622 129.798 121.746C129.893 105.251 130.365 80.5809 130.65 76.6567C131.17 69.7326 131.737 51.7029 131.974 35.3737C132.021 30.3639 132.257 22.7787 132.446 18.5014C132.659 14.248 132.753 10.5163 132.682 10.207C132.517 9.52125 132.233 9.42724 125.687 7.74921C116.07 5.2918 111.462 4.44133 100.048 3.02309C88.6794 1.58328 83.7892 0.921504 80.787 0.401921C77.0771 -0.236944 75.3758 -0.166184 65.498 0.992265ZM60.9848 5.03268C62.1426 5.10344 63.1349 5.29315 63.2296 5.43467C63.324 5.60011 62.6861 5.6237 61.0317 5.52902C59.7539 5.43467 57.6291 5.36391 56.3531 5.36391C54.9116 5.36391 54.0847 5.26923 54.2239 5.15095C54.675 4.70213 55.9042 4.67821 60.9848 5.03268ZM57.5816 6.92333C60.5094 7.27747 58.2434 7.41933 50.1379 7.39541C45.3411 7.39541 40.8272 7.46684 40.095 7.56085C38.9372 7.7263 38.7246 7.70237 38.7246 7.39541C38.7246 7.1592 39.0791 7.01734 39.9768 6.92333C40.6385 6.8519 41.5365 6.73396 41.9146 6.68713C42.9062 6.54763 56.0461 6.76058 57.5816 6.92333ZM55.5026 9.97176C61.4114 10.0425 67.5335 10.1608 69.0899 10.208C79.0149 10.6568 91.6339 11.3425 97.045 11.7438C100.519 12.0036 105.647 12.3827 108.437 12.571C117.819 13.2561 119.661 13.4228 119.85 13.6105C119.969 13.7288 120.111 21.8814 120.182 31.7356C120.3 51.4434 120.063 67.349 119.071 104.849C118.929 109.976 118.811 123.777 118.763 135.498C118.74 147.242 118.693 156.836 118.669 156.836C118.645 156.836 116.849 156.576 114.652 156.245C112.478 155.938 108.508 155.489 105.837 155.3C103.167 155.11 99.8822 154.828 98.5121 154.709C97.1417 154.591 92.7933 154.355 88.8237 154.213C79.926 153.922 71.0193 154.127 62.1446 154.828C58.8361 155.135 50.4469 156.434 47.6586 157.049L46.7607 157.262V154.615C46.7607 153.173 46.6191 150.598 46.4301 148.919C46.2411 147.215 46.0281 144.996 45.9341 143.957C45.556 138.899 45.0361 133.583 44.5159 129.188C43.8305 123.374 43.3187 117.112 42.98 110.401C42.6727 104.399 41.7023 92.1347 41.0897 86.2976C39.2446 69.025 37.2835 40.0062 36.5984 20.0157C36.4802 16.449 36.2908 12.6195 36.22 11.5322L36.0549 9.57045L40.4027 9.71264C42.7893 9.78273 49.5944 9.90134 55.5026 9.97176ZM130.553 13.0906C130.483 13.7295 130.364 14.8394 130.294 15.5959C130.105 17.25 129.703 17.1556 129.703 15.4304C129.703 13.3747 129.962 11.9803 130.341 11.9803C130.625 11.98 130.672 12.2165 130.553 13.0906ZM127.694 18.6915C127.6 21.9525 127.481 24.6936 127.411 24.8132C127.335 24.9106 127.194 24.9278 127.097 24.8517C127.091 24.8473 127.085 24.8422 127.08 24.8372C126.844 24.695 127.033 13.0455 127.269 12.6199C127.317 12.5252 127.482 12.5252 127.624 12.596C127.814 12.7125 127.836 14.556 127.694 18.6915ZM124.504 22.7558C124.74 43.1493 124.528 52.2706 123.724 54.2792L123.488 54.8702L123.323 54.2792C123.233 53.295 123.257 52.304 123.394 51.3251C123.512 50.0258 123.63 43.2197 123.678 36.2013C123.701 29.1829 123.748 21.1725 123.772 18.4074C123.795 14.4846 123.867 13.374 124.103 13.469C124.315 13.5398 124.41 15.6899 124.504 22.7558ZM121.905 135.64C121.905 137.223 122.023 140.342 122.189 142.586C122.449 146.179 122.402 147.242 122.047 146.887C121.621 146.461 120.96 134.41 121.291 133.111C121.621 131.741 121.905 132.875 121.905 135.64ZM124.741 140.436C124.741 141.665 124.647 142.658 124.528 142.658C124.315 142.658 124.244 142.28 123.961 139.822C123.892 139.364 123.925 138.896 124.055 138.451C124.457 137.388 124.74 138.216 124.74 140.437L124.741 140.436Z" fill="white"/>
<path fill-rule="evenodd" clip-rule="evenodd" d="M49.8301 13.9179C49.8301 15.2886 50.3028 21.527 50.4444 21.9526C50.7988 23.1103 50.941 22.0233 50.8463 18.7623C50.7281 14.2016 50.6101 13.1621 50.1613 13.1621C49.9483 13.1621 49.8301 13.4219 49.8301 13.9179Z" fill="white"/>
<path fill-rule="evenodd" clip-rule="evenodd" d="M41.8672 14.1071C40.8984 14.6745 40.6147 15.2416 40.6147 16.5176C40.5352 18.2432 41.8695 19.7062 43.5951 19.7858C44.1713 19.8124 44.7434 19.6789 45.2482 19.4006C46.7604 18.6917 47.2099 16.6831 46.2408 15.1233C45.2916 13.6657 43.3616 13.2172 41.8672 14.1071Z" fill="white"/>
<path fill-rule="evenodd" clip-rule="evenodd" d="M102.598 21.1015C102.858 26.8439 103.047 29.4667 103.26 29.4667C103.662 29.4667 103.709 27.7419 103.425 22.7556C103.189 18.6913 103.047 17.5567 102.787 17.4627C102.504 17.3677 102.48 17.9348 102.598 21.1015Z" fill="white"/>
<path fill-rule="evenodd" clip-rule="evenodd" d="M109.9 17.7926C109.087 18.4459 108.632 19.445 108.671 20.4869C108.671 21.6682 109.664 22.8499 110.68 22.8499C112.299 22.7387 113.574 21.4232 113.634 19.8012C113.634 19.1869 113.445 18.8088 112.782 18.2181C111.838 17.3198 110.798 17.1551 109.9 17.7926Z" fill="white"/>
<path fill-rule="evenodd" clip-rule="evenodd" d="M46.7115 21.715C46.6889 22.7653 46.7523 23.8159 46.9005 24.8557C47.066 26.4155 47.2078 27.8806 47.2078 28.1168C47.2314 28.353 47.3493 28.4713 47.4676 28.3998C47.7274 28.2347 47.7513 24.2647 47.5151 22.6342C47.3493 21.5971 46.9241 21.1243 46.7115 21.715Z" fill="white"/>
<path fill-rule="evenodd" clip-rule="evenodd" d="M43.0959 23.7964C42.9544 24.0326 43.3557 29.2554 43.5919 29.9879C43.6626 30.2241 43.8281 30.4138 43.9699 30.4138C44.2062 30.4138 44.0175 24.1515 43.757 23.7259C43.634 23.5544 43.3951 23.515 43.2236 23.638C43.1677 23.6784 43.1235 23.733 43.0959 23.7964Z" fill="white"/>
<path fill-rule="evenodd" clip-rule="evenodd" d="M105.599 30.2932C105.647 36.2478 105.788 37.9019 106.166 36.4844C106.355 35.7994 106.355 28.9932 106.143 26.0867C105.859 21.6678 105.575 23.8183 105.599 30.2932Z" fill="white"/>
<path fill-rule="evenodd" clip-rule="evenodd" d="M39.1267 24.1738C38.9616 24.3389 38.9616 24.4569 39.5526 28.6395C40.0728 32.255 40.3798 33.7201 40.6174 33.7201C40.8303 33.7201 40.7828 32.9404 40.1685 27.5983C39.8117 24.5047 39.5755 23.7247 39.1267 24.1738Z" fill="white"/>
<path fill-rule="evenodd" clip-rule="evenodd" d="M74.6435 25.0723C69.7991 26.1593 65.6165 28.6389 62.8049 32.1618C61.1165 34.5134 59.801 37.112 58.9057 39.8652C58.5512 41.0938 58.4569 42.1808 58.4798 45.1824C58.4798 48.6085 58.5506 49.152 59.1416 51.0912C60.333 54.9904 62.5246 58.5099 65.4982 61.2999C68.2417 63.9174 71.6099 65.7888 75.2817 66.735C78.7415 67.5652 82.3442 67.6057 85.822 66.8533C93.6922 64.8912 99.4329 58.982 100.993 51.2304C101.566 47.818 101.412 44.3235 100.543 40.9745C98.3152 33.2084 92.09 27.2359 84.2386 25.3311C82.5083 24.8563 80.713 24.6646 78.9215 24.7636C77.4897 24.7724 76.0607 24.8755 74.6435 25.0723ZM83.6469 28.9715C88.8862 30.3938 93.3114 33.9049 95.8875 38.6835C98.6289 43.9538 98.7232 49.3175 96.2419 54.4941C95.507 56.1118 94.4449 57.5601 93.1231 58.7475C90.8544 60.9923 89.2238 62.056 86.7664 62.9065C82.0872 64.537 77.4085 64.1842 72.6349 61.8417C66.7348 59.0689 62.7305 53.395 62.0946 46.9069C61.4605 41.9261 63.2221 36.9388 66.844 33.4611C69.3135 30.8527 72.5648 29.1191 76.1065 28.522C78.6273 28.2548 81.175 28.4061 83.6466 28.9698V28.9715H83.6469Z" fill="white"/>
<path fill-rule="evenodd" clip-rule="evenodd" d="M86.7657 32.9393C86.08 33.1755 86.5052 33.8612 87.6175 34.3808C89.1534 35.0665 91.2091 37.3349 92.2961 39.4614C93.2885 41.4939 93.2885 41.47 93.5486 41.0444C94.1389 40.1228 92.9097 36.7674 91.4689 35.3027C89.9792 33.7669 87.7105 32.6313 86.7657 32.9393Z" fill="white"/>
<path fill-rule="evenodd" clip-rule="evenodd" d="M76.4393 35.9656C74.5227 36.719 72.8936 38.0591 71.784 39.794C70.5554 41.4872 69.9917 43.573 70.201 45.6547C70.3199 48.5134 71.8756 51.1181 74.3361 52.5784C78.5187 55.2488 82.2757 55.1069 85.3245 52.1296C88.3732 49.1523 89.0819 44.8982 87.1915 40.9282C86.4132 39.1026 85.004 37.618 83.2212 36.7456C82.085 36.0963 80.7961 35.7617 79.4874 35.7769C77.9519 35.6586 77.1011 35.7297 76.4393 35.9656ZM82.7013 39.6761C83.67 40.2196 84.1667 41.0229 84.5448 42.7009C85.0643 44.8986 84.6391 45.56 83.8122 43.8587C83.4102 42.984 82.6545 42.1335 81.1887 40.9046C80.0549 39.9592 80.0073 39.1559 81.0472 39.1559C81.6291 39.2111 82.1925 39.3884 82.7013 39.6761Z" fill="white"/>
<path fill-rule="evenodd" clip-rule="evenodd" d="M86.1271 36.2266C86.0324 36.4864 86.3161 36.9352 87.025 37.597C87.6494 38.1856 88.2044 38.8437 88.6791 39.5587C89.2934 40.575 90.0735 40.9055 90.3097 40.2677C90.309 39.7912 90.1958 39.3215 89.9791 38.8969C89.0104 36.7701 86.5759 35.0688 86.1271 36.2266Z" fill="white"/>
<path fill-rule="evenodd" clip-rule="evenodd" d="M65.4975 49.009C64.6457 49.3163 65.6158 52.3408 67.2227 54.5148C69.0891 57.0433 70.4123 57.9649 71.5236 57.5629C72.3033 57.2798 72.1625 56.9011 70.9326 55.838C68.6878 53.8763 68.0048 53.0497 67.0573 51.088C66.041 48.9615 65.947 48.8432 65.4975 49.009Z" fill="white"/>
<path fill-rule="evenodd" clip-rule="evenodd" d="M69.1368 50.522C68.285 51.018 69.1608 53.1924 70.6491 54.2558C72.2321 55.4136 73.2012 54.6571 71.8783 53.2871C71.4008 52.7463 70.9884 52.1512 70.6491 51.5144C69.9641 50.2858 69.7754 50.1676 69.1368 50.522Z" fill="white"/>
<path fill-rule="evenodd" clip-rule="evenodd" d="M108.623 27.9793C108.529 31.6188 108.671 36.5575 108.906 36.5575C109.261 36.5575 109.379 35.0217 109.379 30.2716C109.379 26.2312 109.332 25.4512 109.049 25.4512C108.766 25.4512 108.694 25.9708 108.623 27.9793Z" fill="white"/>
<path fill-rule="evenodd" clip-rule="evenodd" d="M113.563 26.0644C113.326 26.3006 113.373 42.2277 113.61 42.2277C113.728 42.2277 113.894 42.0387 113.965 41.8018C114.177 41.0454 114.413 29.5613 114.224 27.7178C114.083 26.0404 113.941 25.7123 113.563 26.0644Z" fill="white"/>
<path fill-rule="evenodd" clip-rule="evenodd" d="M55.2191 64.5361C51.8165 65.4576 49.8551 69.1675 51.2265 72.1212C52.0783 73.964 53.4713 74.8361 55.5746 74.8361C57.1636 74.827 58.6678 74.118 59.6864 72.8983C61.3405 71.0787 61.6242 68.9057 60.4661 66.8722C59.8926 65.6665 58.8083 64.7817 57.5121 64.4616C56.4008 64.1577 56.6131 64.1577 55.2191 64.5361ZM56.7094 69.6874C57.1107 70.3263 56.3549 71.294 55.4809 71.294C55.053 71.3449 54.6483 71.0885 54.5121 70.6797C54.2517 70.1362 54.2759 69.9947 54.7952 69.5927C55.3845 69.12 56.4008 69.1675 56.7077 69.6874H56.7094Z" fill="white"/>
<path fill-rule="evenodd" clip-rule="evenodd" d="M103.047 65.5032C101.567 65.9318 100.354 66.9969 99.7383 68.4098C99.2787 69.2707 99.1207 70.2607 99.2895 71.2217C99.3703 72.0085 99.5614 72.7801 99.8566 73.514C100.967 75.4043 104.535 75.9245 106.591 74.4595C108.01 73.4668 108.978 71.8127 108.954 70.442C108.954 68.9769 107.844 66.8264 106.825 66.2593C105.363 65.4082 104.181 65.172 103.047 65.5032ZM104.653 69.9928C105.221 70.6778 104.346 71.9306 103.472 71.6469C102.857 71.4579 102.857 70.8197 103.472 70.1562C104.039 69.5436 104.252 69.5221 104.653 69.9928Z" fill="white"/>
<path fill-rule="evenodd" clip-rule="evenodd" d="M75.3285 77.4364C74.4767 77.5547 72.7525 77.9091 71.5 78.2397L69.2569 78.854L63.373 78.5942C57.0639 78.3104 52.7391 78.4051 50.9694 78.854C49.353 79.2876 48.0537 80.4899 47.4958 82.0678C46.8569 83.7459 46.8569 86.2268 47.4958 90.4334C47.7555 92.1815 48.1808 95.112 48.4173 96.9551C48.8432 100.193 48.8432 100.309 48.3934 102.154C47.1157 107.353 47.8499 117.562 49.8349 122.571C50.3309 123.777 50.3551 124.391 50.4967 131.385C50.6389 140.082 50.6149 139.987 52.6943 141.074C54.1125 141.83 53.9235 141.83 59.0516 141.145C60.5423 140.932 63.0442 140.625 64.6043 140.436C66.1647 140.247 67.5583 140.082 67.6763 140.034C68.4917 140.111 69.2984 140.262 70.0869 140.484C73.1636 141.256 76.3198 141.668 79.4916 141.712C82.3712 141.756 85.2403 141.358 87.999 140.53L90.5983 139.798L98.3964 139.751C105.84 139.704 106.265 139.68 107.612 139.16C109.195 138.569 109.954 137.955 110.566 136.749C111.228 135.426 111.322 134.505 111.062 131.314C110.921 129.684 110.684 126.754 110.519 124.767L110.235 121.175L110.874 119.332C112.008 116.023 112.315 113.873 112.291 109.336C112.245 104.562 112.055 103.168 110.85 98.8909L109.976 95.7502V88.661C109.952 82.4934 109.881 81.4536 109.527 80.6263C108.369 77.956 106.502 77.4367 100.335 78.0035C98.2313 78.2164 94.9702 78.4526 93.0799 78.5709C89.8421 78.7839 89.5591 78.7599 87.9993 78.2397C86.9548 77.9074 85.889 77.6466 84.8091 77.46C83.0791 77.1763 77.6916 77.1763 75.3285 77.4364ZM84.993 79.1137C88.278 79.5865 92.6021 81.2645 97.1867 83.8874C98.2262 84.4784 99.1478 84.9275 99.2661 84.8561C99.8571 84.502 97.5624 82.517 94.8712 81.0765L93.4297 80.2732H95.0838C96.0054 80.2732 98.0116 80.1078 99.5734 79.9187C102.551 79.5407 105.127 79.4696 106.639 79.7297C107.372 79.848 107.608 80.0127 107.844 80.6038C108.246 81.62 108.529 86.8189 108.317 89.8434L108.128 92.3719L107.159 91.4031C105.623 89.8909 105.008 90.1979 106.284 91.829C107.844 93.7901 109.569 99.1073 110.349 104.259C111.318 110.734 110.113 119.359 107.726 123.234C107.329 123.884 107.042 124.594 106.874 125.337L106.756 126.235L107.252 125.596C108.717 123.705 108.575 123.752 108.743 125.312C109.121 128.786 109.475 133.205 109.498 134.434C109.498 135.592 109.404 135.875 108.837 136.466C107.963 137.387 106.544 137.695 101.936 137.931C96.4778 138.238 94.2562 138.215 94.824 137.86C95.9579 137.151 97.6831 135.615 97.7518 135.261C97.8701 134.694 97.1375 134.741 96.2611 135.355C94.5356 136.405 92.716 137.291 90.826 138.002C84.4694 140.412 77.8523 140.673 70.5037 138.854C68.9281 138.406 67.3814 137.861 65.8722 137.224C62.4697 135.805 61.8797 135.641 61.8797 136.113C61.8797 136.562 63.0142 137.531 64.3374 138.242L65.3061 138.761L63.652 138.903C62.7541 138.974 60.2255 139.234 58.0512 139.47L54.1284 139.896L53.3958 139.376C52.5218 138.737 52.4978 138.597 52.3088 132.737C52.238 130.208 52.1198 127.656 52.0258 127.065L51.8836 126L53.1613 127.513C55.1699 129.923 54.8649 128.08 52.76 125.126C50.8222 122.385 49.9478 119.478 49.4514 114.067C48.7189 105.869 49.8773 99.203 53.4925 91.2397C54.2251 89.6567 54.2958 88.8292 53.6816 89.2072C52.9531 90.3417 52.3054 91.5265 51.7437 92.752C49.9949 96.2964 49.9717 96.3186 49.7587 94.0988C49.7112 93.5785 49.4043 91.8304 49.1199 90.1999C48.4109 86.3246 48.3634 83.323 49.0016 82.0473C49.9464 80.157 51.6245 79.8732 60.0844 80.157L65.2357 80.3221L63.5105 81.3383C62.6658 81.8181 61.8598 82.3633 61.0999 82.9688C60.1784 83.8207 60.5096 84.2213 61.5966 83.5599C63.0523 82.645 64.5864 81.8613 66.1805 81.2177C69.3459 80.1034 72.616 79.3119 75.9404 78.8546C78.9599 78.6632 81.9901 78.7498 84.993 79.1137Z" fill="white"/>
<path fill-rule="evenodd" clip-rule="evenodd" d="M103.023 82.5418C102.432 83.2983 102.432 83.4165 102.882 84.267C103.109 84.8624 103.686 85.2506 104.323 85.2357C104.867 85.2357 105.601 84.3378 105.601 83.6285C105.599 81.9983 103.969 81.3365 103.023 82.5418Z" fill="white"/>
<path fill-rule="evenodd" clip-rule="evenodd" d="M53.6116 82.4236C52.6897 82.8016 52.1934 83.3691 52.1934 84.0541C52.1934 84.8338 52.5953 85.2119 53.6584 85.3773C54.2306 85.5232 54.8354 85.3308 55.2182 84.8813C56.1162 84.1249 56.1637 83.5345 55.3836 82.7548C54.7694 82.1163 54.5106 82.0691 53.6116 82.4236Z" fill="white"/>
<path fill-rule="evenodd" clip-rule="evenodd" d="M78.3065 82.4239C75.2571 82.7541 72.2716 83.5261 69.4446 84.7162C62.0757 88.0949 56.575 94.5556 54.4151 102.369C53.6273 105.832 53.4275 109.402 53.8241 112.931C54.5148 117.154 56.2087 121.149 58.7632 124.582C64.6238 132.403 74.3608 136.255 84.4027 134.743C93.68 133.284 101.564 127.175 105.292 118.556C106.663 115.366 107.324 109.08 106.686 105.417C105.457 98.4461 103.662 94.9485 99.0538 90.3882C96.3123 87.6939 95.8867 87.3394 93.4529 85.7567C89.6955 83.2754 83.6462 81.9522 78.3058 82.4249L78.3065 82.4239ZM88.4209 87.859C90.6319 88.8028 92.6998 90.0515 94.5645 91.5689C97.4984 94.0071 99.76 97.1552 101.134 100.714C101.796 102.439 102.245 104.85 101.89 104.85C101.466 104.205 101.132 103.505 100.898 102.77C99.9056 100.24 98.6039 97.8429 97.0223 95.6332C94.6801 92.4924 90.4059 89.253 87.3103 88.2869C85.3724 87.6726 85.4193 87.6959 85.6066 87.3889C85.797 87.1025 86.8601 87.2683 88.4209 87.859ZM88.1139 92.2074C88.8228 92.6333 89.768 93.1522 90.1696 93.3652C91.4218 94.004 93.9978 96.5554 95.2738 98.4693C96.9279 100.904 98.5349 104.85 97.8498 104.85C97.3461 104.165 96.9178 103.428 96.5721 102.652C94.3273 98.1624 92.1294 95.7282 88.1122 93.2705C86.8837 92.5379 85.8199 91.7346 85.7967 91.4984C85.6791 90.9549 86.3877 91.1679 88.1129 92.2074H88.1139ZM88.9657 96.7677C91.2813 98.28 93.3842 101.045 93.8809 103.243C94.1407 104.4 93.5972 103.952 92.2503 101.919C91.0417 99.9802 89.4095 98.3403 87.4767 97.1222C86.4605 96.5312 86.3189 96.3425 86.6249 96.0352C86.9548 95.6807 87.6166 95.8937 88.9634 96.7677H88.9657ZM82.1835 97.784C85.6811 98.658 87.8312 100.336 89.3434 103.29C90.6394 105.851 90.9989 108.786 90.3597 111.584C89.8765 114.087 88.6102 116.371 86.7442 118.106C84.2868 120.422 81.9948 121.367 78.8278 121.391C74.9922 121.33 71.4993 119.17 69.73 115.767C65.5245 107.827 70.9353 97.9969 79.8679 97.3112C80.6493 97.4137 81.4227 97.5717 82.1815 97.784H82.1835ZM59.12 116.972C61.0339 120.989 62.3096 122.738 65.3819 125.668C67.4771 127.771 69.9244 129.491 72.6133 130.749C74.1963 131.434 74.5744 131.788 73.7003 131.788C72.9206 131.788 69.1157 129.756 67.6267 128.551C63.1372 124.911 60.9628 122.501 59.5213 119.524C58.0801 116.57 56.9692 113.592 57.3237 113.592C58.0124 114.668 58.6125 115.798 59.1176 116.971H59.12V116.972ZM63.3255 116.712C64.4766 118.877 65.9507 120.853 67.6972 122.573C68.336 123.163 69.6822 124.277 70.6984 125.03C72.2814 126.236 72.8492 126.826 72.3764 126.826C71.9505 126.826 67.9101 123.899 66.7048 122.715C64.0112 120.02 61.4119 115.483 62.5697 115.483C62.8902 115.846 63.1452 116.262 63.3242 116.712H63.3255ZM67.6736 117.161C68.3097 118.156 68.9961 119.119 69.7293 120.044C71.0761 121.748 71.1944 122.242 70.0599 121.486C68.9951 120.8 66.3739 117.019 66.3739 116.192C66.3723 115.578 67.034 116.074 67.6719 117.161L67.6736 117.161Z" fill="white"/>
<path fill-rule="evenodd" clip-rule="evenodd" d="M77.313 101.966C74.767 102.811 72.7975 104.851 72.0427 107.425C70.6012 112.009 72.6337 116.262 76.8635 117.492C84.4962 119.713 90.5931 110.048 85.3942 103.975C83.6228 101.895 80.0306 100.997 77.313 101.966ZM82.2289 104.495C84.1192 105.18 85.2062 106.787 84.875 108.417C84.6859 109.41 84.4261 109.457 83.9062 108.583C83.2859 107.509 82.307 106.69 81.1418 106.267C80.7068 106.149 80.2924 105.966 79.9126 105.724C79.5774 105.45 79.5272 104.956 79.8008 104.621C79.8921 104.509 80.0127 104.425 80.1492 104.377C80.8814 104.093 81.0704 104.093 82.2289 104.495Z" fill="white"/>
<path fill-rule="evenodd" clip-rule="evenodd" d="M103.567 130.843C102.843 131.185 102.356 131.888 102.289 132.686C102.289 133.466 103.305 134.39 104.156 134.39C104.655 134.355 105.129 134.156 105.503 133.822C106.142 133.303 106.142 133.232 105.881 132.287C105.752 131.725 105.391 131.245 104.889 130.963C104.652 130.821 104.398 130.71 104.133 130.633C103.938 130.684 103.748 130.754 103.567 130.843Z" fill="white"/>
<path fill-rule="evenodd" clip-rule="evenodd" d="M55.0301 133.371C53.9431 133.749 53.7308 135.474 54.6756 136.396C54.9549 136.706 55.3296 136.914 55.7404 136.987C56.26 136.987 57.3945 136.018 57.3945 135.569C57.3945 134.884 56.6387 133.655 56.0952 133.44C55.8859 133.337 55.6632 133.265 55.4334 133.227C55.4078 133.23 55.2191 133.3 55.0301 133.371Z" fill="white"/>
<path fill-rule="evenodd" clip-rule="evenodd" d="M115.643 83.631C115.548 83.9383 115.382 89.1604 115.288 95.2812C115.17 101.377 115.029 109.53 114.91 113.358C114.745 120.377 114.839 122.22 115.359 122.031C115.572 121.96 115.69 120.164 115.785 115.462C116.305 93.2254 116.47 84.2453 116.329 83.7018C116.139 82.9675 115.879 82.9439 115.643 83.631Z" fill="white"/>
<path fill-rule="evenodd" clip-rule="evenodd" d="M45.1999 127.913C45.4597 130.417 47.2085 143.085 47.4922 144.478C47.7759 145.872 48.344 146.558 48.1064 145.234C48.0118 144.785 47.6805 142.044 47.35 139.112C46.3577 130.582 45.7195 126.517 45.365 126.399C45.1052 126.306 45.0577 126.59 45.1999 127.913Z" fill="white"/>
<path fill-rule="evenodd" clip-rule="evenodd" d="M114.721 127.229C114.65 127.725 114.579 131.128 114.579 134.814C114.579 140.723 114.627 141.502 114.957 141.644C115.832 141.974 115.855 141.738 115.359 129.946C115.217 126.401 115.005 125.526 114.721 127.229Z" fill="white"/>
<path fill-rule="evenodd" clip-rule="evenodd" d="M50.5398 144.384C49.6227 144.965 49.0151 145.928 48.8857 147.006C48.9582 148.018 49.4889 148.941 50.3269 149.512C51.1787 149.984 53.0919 149.677 53.777 148.992C54.5098 148.259 54.7696 146.558 54.3205 145.494C53.8009 144.242 51.9106 143.675 50.5398 144.384Z" fill="white"/>
<path fill-rule="evenodd" clip-rule="evenodd" d="M109.874 144.926C109.033 145.702 108.634 146.845 108.809 147.975C108.986 148.435 109.279 148.843 109.661 149.156C110.827 150.099 112.536 149.918 113.479 148.752C113.591 148.612 113.689 148.463 113.773 148.304C115.075 145.754 112.027 143.107 109.874 144.926Z" fill="white"/>
<path fill-rule="evenodd" clip-rule="evenodd" d="M12.2492 80.2906C9.95422 81.0168 7.59419 81.5175 5.20215 81.7854C2.25515 82.1698 1.74197 82.3407 1.6146 82.9809C1.55024 83.3438 1.9775 84.882 2.76766 87.2093C3.72596 89.9855 5.73589 97.2462 5.73589 97.9295C5.73589 97.9935 5.54382 97.9295 5.3302 97.8011C3.40855 96.7977 0.952148 99.0186 0.952148 101.752C0.952148 106.064 5.88516 108.308 7.67944 104.806C8.51205 103.205 8.49083 101.197 7.57296 97.8011C6.09946 92.2488 5.37333 89.7719 4.71155 88.1275C4.43929 87.5183 4.21083 86.8902 4.02787 86.2483C4.02787 86.1418 4.64685 86.0563 5.37299 86.0563C7.85061 86.0563 12.8901 85.1805 14.0644 84.5615C14.4903 84.3267 14.7481 84.8176 16.0079 88.1915C16.7533 90.1351 18.7629 96.6696 18.7629 97.1185C18.7629 97.2037 18.3568 97.2462 17.8659 97.2037C16.6273 97.1185 15.9648 97.5029 15.4098 98.656C14.5772 100.3 14.9617 103.055 16.136 103.995C17.4174 104.998 19.7239 104.977 20.8345 103.952C21.5394 103.29 21.8379 101.561 21.5394 99.8946C21.1549 97.8446 18.7181 89.9218 17.5033 86.804C16.1151 83.2592 14.3215 79.9901 13.7446 79.9277C13.2294 79.9648 12.724 80.0878 12.2492 80.2906Z" fill="white"/>
<path fill-rule="evenodd" clip-rule="evenodd" d="M155.61 61.7979C154.365 62.1504 148.854 62.2902 147.705 62.0052C147.03 61.7737 146.295 62.1332 146.064 62.8081C146.05 62.8489 146.038 62.89 146.028 62.9318C145.975 64.376 146.037 65.8218 146.215 67.2559C146.754 72.8251 147.156 77.4508 147.137 77.6109C147.112 77.7082 146.786 77.6897 146.398 77.5927C145.035 77.254 143.645 78.1079 142.665 79.8897C141.2 82.5435 144.135 86.62 146.629 85.3999C147.742 84.8288 148.416 83.6963 148.958 81.4313C149.384 79.6356 149.392 79.1831 149.187 76.012C149.063 74.1005 148.85 71.6299 148.692 70.5163C148.535 69.4027 148.401 68.3568 148.401 68.1916C148.406 68.0063 148.892 67.8793 149.875 67.8338C151.679 67.7243 154.733 66.9944 155.715 66.453C156.247 66.1507 156.42 65.9455 156.429 65.5762C156.478 64.933 156.581 64.2948 156.737 63.6687C157.118 61.8829 156.855 61.4455 155.61 61.7979Z" fill="white"/>
<path fill-rule="evenodd" clip-rule="evenodd" d="M155.224 18.0501C154.91 18.476 154.864 19.3969 154.887 23.8423C154.91 29.4782 154.999 30.2863 155.561 30.6458C156.159 30.9302 156.876 30.7169 157.222 30.1518C157.424 29.4782 156.885 18.162 156.616 17.8257C156.256 17.3984 155.605 17.5106 155.224 18.0501Z" fill="white"/>
<path fill-rule="evenodd" clip-rule="evenodd" d="M168.448 31.4982C167.348 31.7223 165.125 32.127 163.509 32.3739C159.356 33.0249 158.681 33.3167 159.041 34.2595C159.243 34.7987 159.626 34.8212 162.072 34.5065C163.35 34.3273 165.933 34.0355 167.775 33.8107C169.116 33.6995 170.446 33.4741 171.749 33.1371C172.535 32.7325 172.76 32.0144 172.243 31.4527C171.771 30.9143 171.075 30.9365 168.448 31.4982Z" fill="white"/>
<path fill-rule="evenodd" clip-rule="evenodd" d="M150.486 34.4186C149.498 34.5079 147.679 34.7327 146.444 34.9348C145.471 35.105 144.489 35.225 143.503 35.294C142.694 35.294 141.617 36.0576 141.617 36.6186C141.617 37.2696 142.358 37.7636 143.346 37.7636C144.087 37.7636 149.43 36.5738 152.461 35.7206C153.313 35.4959 153.739 34.9797 153.382 34.6201C153.023 34.2832 152.304 34.2387 150.486 34.4186Z" fill="white"/>
<path fill-rule="evenodd" clip-rule="evenodd" d="M156.255 37.8065C155.694 38.3682 156.165 48.4044 156.794 49.3701C157.078 49.8563 157.702 50.0201 158.188 49.736C158.362 49.6343 158.502 49.4837 158.591 49.3024C158.949 48.7636 158.949 48.4266 158.456 43.5324C158.318 41.6495 158.078 39.7757 157.737 37.9187C157.39 37.4807 156.754 37.4069 156.316 37.754C156.295 37.7708 156.275 37.7883 156.255 37.8065Z" fill="white"/>
<path fill-rule="evenodd" clip-rule="evenodd" d="M9.02511 123.496C8.61773 124.282 8.67603 130.426 9.11238 131.678C9.49078 132.813 10.4231 133.162 11.0633 132.406C11.3828 132.027 11.3828 131.241 11.0633 127.805C10.8595 125.534 10.627 123.525 10.5684 123.321C10.3355 122.739 9.37487 122.885 9.02511 123.496Z" fill="white"/>
<path fill-rule="evenodd" clip-rule="evenodd" d="M16.1598 134.183C13.3918 134.707 12.8115 134.998 12.8115 135.872C12.8115 136.978 13.4811 137.327 15.3737 137.124C17.6155 136.891 21.2549 135.726 21.6333 135.144C21.7998 134.852 21.8419 134.506 21.7499 134.183C21.5167 133.601 19.1294 133.601 16.1598 134.183Z" fill="white"/>
<path fill-rule="evenodd" clip-rule="evenodd" d="M2.06658 135.143C0.0286795 135.871 -0.495621 136.658 0.465372 137.618C0.960358 138.142 1.92135 138.172 5.35694 137.822C7.07473 137.647 7.77324 137.443 8.06436 137.036C8.47814 136.329 8.28979 135.423 7.62801 134.94C6.95814 134.416 3.87164 134.532 2.06658 135.143Z" fill="white"/>
<path fill-rule="evenodd" clip-rule="evenodd" d="M9.90104 139.219C9.5816 139.83 9.49332 146.178 9.78445 147.663C9.9253 148.215 10.2434 148.705 10.6895 149.06C11.359 149.497 11.4466 149.497 11.9709 148.944C12.5529 148.391 12.5529 148.216 12.2328 143.878C12.0582 141.432 11.7671 139.246 11.5939 139.044C11.2307 138.609 10.584 138.551 10.149 138.914C10.0476 138.999 9.96337 139.102 9.90104 139.219Z" fill="white"/>
</svg>
