<svg width="1440" height="860" viewBox="0 0 1440 860" fill="none" xmlns="http://www.w3.org/2000/svg">
<rect width="1538" height="908" fill="black"/>
<rect width="68" height="68" rx="13" fill="#111112"/>
<rect x="70" width="68" height="68" rx="13" fill="#111112"/>
<rect x="140" width="68" height="68" rx="13" fill="#111112"/>
<rect x="210" width="68" height="68" rx="13" fill="#111112"/>
<rect x="280" width="68" height="68" rx="13" fill="#111112"/>
<rect x="350" width="68" height="68" rx="13" fill="#111112"/>
<rect x="420" width="68" height="68" rx="13" fill="#111112"/>
<rect x="490" width="68" height="68" rx="13" fill="#111112"/>
<rect x="560" width="68" height="68" rx="13" fill="#111112"/>
<rect x="630" width="68" height="68" rx="13" fill="#111112"/>
<rect x="700" width="68" height="68" rx="13" fill="#111112"/>
<rect x="770" width="68" height="68" rx="13" fill="#111112"/>
<rect x="840" width="68" height="68" rx="13" fill="#111112"/>
<rect x="910" width="68" height="68" rx="13" fill="#111112"/>
<rect x="980" width="68" height="68" rx="13" fill="#111112"/>
<rect x="1050" width="68" height="68" rx="13" fill="#111112"/>
<rect x="1120" width="68" height="68" rx="13" fill="#111112"/>
<rect x="1190" width="68" height="68" rx="13" fill="#111112"/>
<rect x="1260" width="68" height="68" rx="13" fill="#111112"/>
<rect x="1330" width="68" height="68" rx="13" fill="#111112"/>
<rect x="1400" width="68" height="68" rx="13" fill="#111112"/>
<rect y="70" width="68" height="68" rx="13" fill="#111112"/>
<rect x="70" y="70" width="68" height="68" rx="13" fill="#111112"/>
<rect x="140" y="70" width="68" height="68" rx="13" fill="#111112"/>
<rect x="210" y="70" width="68" height="68" rx="13" fill="#111112"/>
<rect x="280" y="70" width="68" height="68" rx="13" fill="#111112"/>
<rect x="350" y="70" width="68" height="68" rx="13" fill="#111112"/>
<rect x="420" y="70" width="68" height="68" rx="13" fill="#111112"/>
<rect x="490" y="70" width="68" height="68" rx="13" fill="#111112"/>
<rect x="560" y="70" width="68" height="68" rx="13" fill="#111112"/>
<rect x="630" y="70" width="68" height="68" rx="13" fill="#111112"/>
<rect x="700" y="70" width="68" height="68" rx="13" fill="#111112"/>
<rect x="770" y="70" width="68" height="68" rx="13" fill="#111112"/>
<rect x="840" y="70" width="68" height="68" rx="13" fill="#111112"/>
<rect x="910" y="70" width="68" height="68" rx="13" fill="#111112"/>
<rect x="980" y="70" width="68" height="68" rx="13" fill="#111112"/>
<rect x="1050" y="70" width="68" height="68" rx="13" fill="#111112"/>
<rect x="1120" y="70" width="68" height="68" rx="13" fill="#111112"/>
<rect x="1190" y="70" width="68" height="68" rx="13" fill="#111112"/>
<rect x="1260" y="70" width="68" height="68" rx="13" fill="#111112"/>
<rect x="1330" y="70" width="68" height="68" rx="13" fill="#111112"/>
<rect x="1400" y="70" width="68" height="68" rx="13" fill="#111112"/>
<rect y="140" width="68" height="68" rx="13" fill="#111112"/>
<rect x="70" y="140" width="68" height="68" rx="13" fill="#111112"/>
<rect x="140" y="140" width="68" height="68" rx="13" fill="#111112"/>
<rect x="210" y="140" width="68" height="68" rx="13" fill="#111112"/>
<rect x="280" y="140" width="68" height="68" rx="13" fill="#111112"/>
<rect x="350" y="140" width="68" height="68" rx="13" fill="#111112"/>
<rect x="420" y="140" width="68" height="68" rx="13" fill="#111112"/>
<rect x="490" y="140" width="68" height="68" rx="13" fill="#111112"/>
<rect x="560" y="140" width="68" height="68" rx="13" fill="#111112"/>
<rect x="630" y="140" width="68" height="68" rx="13" fill="#111112"/>
<rect x="700" y="140" width="68" height="68" rx="13" fill="#111112"/>
<rect x="770" y="140" width="68" height="68" rx="13" fill="#111112"/>
<rect x="840" y="140" width="68" height="68" rx="13" fill="#111112"/>
<rect x="910" y="140" width="68" height="68" rx="13" fill="#111112"/>
<rect x="980" y="140" width="68" height="68" rx="13" fill="#111112"/>
<rect x="1050" y="140" width="68" height="68" rx="13" fill="#111112"/>
<rect x="1120" y="140" width="68" height="68" rx="13" fill="#111112"/>
<rect x="1190" y="140" width="68" height="68" rx="13" fill="#111112"/>
<rect x="1260" y="140" width="68" height="68" rx="13" fill="#111112"/>
<rect x="1330" y="140" width="68" height="68" rx="13" fill="#111112"/>
<rect x="1400" y="140" width="68" height="68" rx="13" fill="#111112"/>
<rect y="210" width="68" height="68" rx="13" fill="#111112"/>
<rect x="70" y="210" width="68" height="68" rx="13" fill="#111112"/>
<rect x="140" y="210" width="68" height="68" rx="13" fill="#111112"/>
<rect x="210" y="210" width="68" height="68" rx="13" fill="#111112"/>
<rect x="280" y="210" width="68" height="68" rx="13" fill="#111112"/>
<rect x="350" y="210" width="68" height="68" rx="13" fill="#111112"/>
<rect x="420" y="210" width="68" height="68" rx="13" fill="#111112"/>
<rect x="490" y="210" width="68" height="68" rx="13" fill="#111112"/>
<rect x="560" y="210" width="68" height="68" rx="13" fill="#111112"/>
<rect x="630" y="210" width="68" height="68" rx="13" fill="#111112"/>
<rect x="700" y="210" width="68" height="68" rx="13" fill="#111112"/>
<rect x="770" y="210" width="68" height="68" rx="13" fill="#111112"/>
<rect x="840" y="210" width="68" height="68" rx="13" fill="#111112"/>
<rect x="910" y="210" width="68" height="68" rx="13" fill="#111112"/>
<rect x="980" y="210" width="68" height="68" rx="13" fill="#111112"/>
<rect x="1050" y="210" width="68" height="68" rx="13" fill="#111112"/>
<rect x="1120" y="210" width="68" height="68" rx="13" fill="#111112"/>
<rect x="1190" y="210" width="68" height="68" rx="13" fill="#111112"/>
<rect x="1260" y="210" width="68" height="68" rx="13" fill="#111112"/>
<rect x="1330" y="210" width="68" height="68" rx="13" fill="#111112"/>
<rect x="1400" y="210" width="68" height="68" rx="13" fill="#111112"/>
<rect y="280" width="68" height="68" rx="13" fill="#111112"/>
<rect x="70" y="280" width="68" height="68" rx="13" fill="#111112"/>
<rect x="140" y="280" width="68" height="68" rx="13" fill="#111112"/>
<rect x="210" y="280" width="68" height="68" rx="13" fill="#111112"/>
<rect x="280" y="280" width="68" height="68" rx="13" fill="#111112"/>
<rect x="350" y="280" width="68" height="68" rx="13" fill="#111112"/>
<rect x="420" y="280" width="68" height="68" rx="13" fill="#111112"/>
<rect x="490" y="280" width="68" height="68" rx="13" fill="#111112"/>
<rect x="560" y="280" width="68" height="68" rx="13" fill="#111112"/>
<rect x="630" y="280" width="68" height="68" rx="13" fill="#111112"/>
<rect x="700" y="280" width="68" height="68" rx="13" fill="#111112"/>
<rect x="770" y="280" width="68" height="68" rx="13" fill="#111112"/>
<rect x="840" y="280" width="68" height="68" rx="13" fill="#111112"/>
<rect x="910" y="280" width="68" height="68" rx="13" fill="#111112"/>
<rect x="980" y="280" width="68" height="68" rx="13" fill="#111112"/>
<rect x="1050" y="280" width="68" height="68" rx="13" fill="#111112"/>
<rect x="1120" y="280" width="68" height="68" rx="13" fill="#111112"/>
<rect x="1190" y="280" width="68" height="68" rx="13" fill="#111112"/>
<rect x="1260" y="280" width="68" height="68" rx="13" fill="#111112"/>
<rect x="1330" y="280" width="68" height="68" rx="13" fill="#111112"/>
<rect x="1400" y="280" width="68" height="68" rx="13" fill="#111112"/>
<rect y="350" width="68" height="68" rx="13" fill="#111112"/>
<rect x="70" y="350" width="68" height="68" rx="13" fill="#111112"/>
<rect x="140" y="350" width="68" height="68" rx="13" fill="#111112"/>
<rect x="210" y="350" width="68" height="68" rx="13" fill="#111112"/>
<rect x="280" y="350" width="68" height="68" rx="13" fill="#111112"/>
<rect x="350" y="350" width="68" height="68" rx="13" fill="#111112"/>
<rect x="420" y="350" width="68" height="68" rx="13" fill="#111112"/>
<rect x="490" y="350" width="68" height="68" rx="13" fill="#111112"/>
<rect x="560" y="350" width="68" height="68" rx="13" fill="#111112"/>
<rect x="630" y="350" width="68" height="68" rx="13" fill="#111112"/>
<rect x="700" y="350" width="68" height="68" rx="13" fill="#111112"/>
<rect x="770" y="350" width="68" height="68" rx="13" fill="#111112"/>
<rect x="840" y="350" width="68" height="68" rx="13" fill="#111112"/>
<rect x="910" y="350" width="68" height="68" rx="13" fill="#111112"/>
<rect x="980" y="350" width="68" height="68" rx="13" fill="#111112"/>
<rect x="1050" y="350" width="68" height="68" rx="13" fill="#111112"/>
<rect x="1120" y="350" width="68" height="68" rx="13" fill="#111112"/>
<rect x="1190" y="350" width="68" height="68" rx="13" fill="#111112"/>
<rect x="1260" y="350" width="68" height="68" rx="13" fill="#111112"/>
<rect x="1330" y="350" width="68" height="68" rx="13" fill="#111112"/>
<rect x="1400" y="350" width="68" height="68" rx="13" fill="#111112"/>
<rect y="420" width="68" height="68" rx="13" fill="#111112"/>
<rect x="70" y="420" width="68" height="68" rx="13" fill="#111112"/>
<rect x="140" y="420" width="68" height="68" rx="13" fill="#111112"/>
<rect x="210" y="420" width="68" height="68" rx="13" fill="#111112"/>
<rect x="280" y="420" width="68" height="68" rx="13" fill="#111112"/>
<rect x="350" y="420" width="68" height="68" rx="13" fill="#111112"/>
<rect x="420" y="420" width="68" height="68" rx="13" fill="#111112"/>
<rect x="490" y="420" width="68" height="68" rx="13" fill="#111112"/>
<rect x="560" y="420" width="68" height="68" rx="13" fill="#111112"/>
<rect x="630" y="420" width="68" height="68" rx="13" fill="#111112"/>
<rect x="700" y="420" width="68" height="68" rx="13" fill="#111112"/>
<rect x="770" y="420" width="68" height="68" rx="13" fill="#111112"/>
<rect x="840" y="420" width="68" height="68" rx="13" fill="#111112"/>
<rect x="910" y="420" width="68" height="68" rx="13" fill="#111112"/>
<rect x="980" y="420" width="68" height="68" rx="13" fill="#111112"/>
<rect x="1050" y="420" width="68" height="68" rx="13" fill="#111112"/>
<rect x="1120" y="420" width="68" height="68" rx="13" fill="#111112"/>
<rect x="1190" y="420" width="68" height="68" rx="13" fill="#111112"/>
<rect x="1260" y="420" width="68" height="68" rx="13" fill="#111112"/>
<rect x="1330" y="420" width="68" height="68" rx="13" fill="#111112"/>
<rect x="1400" y="420" width="68" height="68" rx="13" fill="#111112"/>
<rect y="490" width="68" height="68" rx="13" fill="#111112"/>
<rect x="70" y="490" width="68" height="68" rx="13" fill="#111112"/>
<rect x="140" y="490" width="68" height="68" rx="13" fill="#111112"/>
<rect x="210" y="490" width="68" height="68" rx="13" fill="#111112"/>
<rect x="280" y="490" width="68" height="68" rx="13" fill="#111112"/>
<rect x="350" y="490" width="68" height="68" rx="13" fill="#111112"/>
<rect x="420" y="490" width="68" height="68" rx="13" fill="#111112"/>
<rect x="490" y="490" width="68" height="68" rx="13" fill="#111112"/>
<rect x="560" y="490" width="68" height="68" rx="13" fill="#111112"/>
<rect x="630" y="490" width="68" height="68" rx="13" fill="#111112"/>
<rect x="700" y="490" width="68" height="68" rx="13" fill="#111112"/>
<rect x="770" y="490" width="68" height="68" rx="13" fill="#111112"/>
<rect x="840" y="490" width="68" height="68" rx="13" fill="#111112"/>
<rect x="910" y="490" width="68" height="68" rx="13" fill="#111112"/>
<rect x="980" y="490" width="68" height="68" rx="13" fill="#111112"/>
<rect x="1050" y="490" width="68" height="68" rx="13" fill="#111112"/>
<rect x="1120" y="490" width="68" height="68" rx="13" fill="#111112"/>
<rect x="1190" y="490" width="68" height="68" rx="13" fill="#111112"/>
<rect x="1260" y="490" width="68" height="68" rx="13" fill="#111112"/>
<rect x="1330" y="490" width="68" height="68" rx="13" fill="#111112"/>
<rect x="1400" y="490" width="68" height="68" rx="13" fill="#111112"/>
<rect y="560" width="68" height="68" rx="13" fill="#111112"/>
<rect x="70" y="560" width="68" height="68" rx="13" fill="#111112"/>
<rect x="140" y="560" width="68" height="68" rx="13" fill="#111112"/>
<rect x="210" y="560" width="68" height="68" rx="13" fill="#111112"/>
<rect x="280" y="560" width="68" height="68" rx="13" fill="#111112"/>
<rect x="350" y="560" width="68" height="68" rx="13" fill="#111112"/>
<rect x="420" y="560" width="68" height="68" rx="13" fill="#111112"/>
<rect x="490" y="560" width="68" height="68" rx="13" fill="#111112"/>
<rect x="560" y="560" width="68" height="68" rx="13" fill="#111112"/>
<rect x="630" y="560" width="68" height="68" rx="13" fill="#111112"/>
<rect x="700" y="560" width="68" height="68" rx="13" fill="#111112"/>
<rect x="770" y="560" width="68" height="68" rx="13" fill="#111112"/>
<rect x="840" y="560" width="68" height="68" rx="13" fill="#111112"/>
<rect x="910" y="560" width="68" height="68" rx="13" fill="#111112"/>
<rect x="980" y="560" width="68" height="68" rx="13" fill="#111112"/>
<rect x="1050" y="560" width="68" height="68" rx="13" fill="#111112"/>
<rect x="1120" y="560" width="68" height="68" rx="13" fill="#111112"/>
<rect x="1190" y="560" width="68" height="68" rx="13" fill="#111112"/>
<rect x="1260" y="560" width="68" height="68" rx="13" fill="#111112"/>
<rect x="1330" y="560" width="68" height="68" rx="13" fill="#111112"/>
<rect x="1400" y="560" width="68" height="68" rx="13" fill="#111112"/>
<rect y="630" width="68" height="68" rx="13" fill="#111112"/>
<rect x="70" y="630" width="68" height="68" rx="13" fill="#111112"/>
<rect x="140" y="630" width="68" height="68" rx="13" fill="#111112"/>
<rect x="210" y="630" width="68" height="68" rx="13" fill="#111112"/>
<rect x="280" y="630" width="68" height="68" rx="13" fill="#111112"/>
<rect x="350" y="630" width="68" height="68" rx="13" fill="#111112"/>
<rect x="420" y="630" width="68" height="68" rx="13" fill="#111112"/>
<rect x="490" y="630" width="68" height="68" rx="13" fill="#111112"/>
<rect x="560" y="630" width="68" height="68" rx="13" fill="#111112"/>
<rect x="630" y="630" width="68" height="68" rx="13" fill="#111112"/>
<rect x="700" y="630" width="68" height="68" rx="13" fill="#111112"/>
<rect x="770" y="630" width="68" height="68" rx="13" fill="#111112"/>
<rect x="840" y="630" width="68" height="68" rx="13" fill="#111112"/>
<rect x="910" y="630" width="68" height="68" rx="13" fill="#111112"/>
<rect x="980" y="630" width="68" height="68" rx="13" fill="#111112"/>
<rect x="1050" y="630" width="68" height="68" rx="13" fill="#111112"/>
<rect x="1120" y="630" width="68" height="68" rx="13" fill="#111112"/>
<rect x="1190" y="630" width="68" height="68" rx="13" fill="#111112"/>
<rect x="1260" y="630" width="68" height="68" rx="13" fill="#111112"/>
<rect x="1330" y="630" width="68" height="68" rx="13" fill="#111112"/>
<rect x="1400" y="630" width="68" height="68" rx="13" fill="#111112"/>
<rect y="700" width="68" height="68" rx="13" fill="#111112"/>
<rect x="70" y="700" width="68" height="68" rx="13" fill="#111112"/>
<rect x="140" y="700" width="68" height="68" rx="13" fill="#111112"/>
<rect x="210" y="700" width="68" height="68" rx="13" fill="#111112"/>
<rect x="280" y="700" width="68" height="68" rx="13" fill="#111112"/>
<rect x="350" y="700" width="68" height="68" rx="13" fill="#111112"/>
<rect x="420" y="700" width="68" height="68" rx="13" fill="#111112"/>
<rect x="490" y="700" width="68" height="68" rx="13" fill="#111112"/>
<rect x="560" y="700" width="68" height="68" rx="13" fill="#111112"/>
<rect x="630" y="700" width="68" height="68" rx="13" fill="#111112"/>
<rect x="700" y="700" width="68" height="68" rx="13" fill="#111112"/>
<rect x="770" y="700" width="68" height="68" rx="13" fill="#111112"/>
<rect x="840" y="700" width="68" height="68" rx="13" fill="#111112"/>
<rect x="910" y="700" width="68" height="68" rx="13" fill="#111112"/>
<rect x="980" y="700" width="68" height="68" rx="13" fill="#111112"/>
<rect x="1050" y="700" width="68" height="68" rx="13" fill="#111112"/>
<rect x="1120" y="700" width="68" height="68" rx="13" fill="#111112"/>
<rect x="1190" y="700" width="68" height="68" rx="13" fill="#111112"/>
<rect x="1260" y="700" width="68" height="68" rx="13" fill="#111112"/>
<rect x="1330" y="700" width="68" height="68" rx="13" fill="#111112"/>
<rect x="1400" y="700" width="68" height="68" rx="13" fill="#111112"/>
<rect y="770" width="68" height="68" rx="13" fill="#111112"/>
<rect x="70" y="770" width="68" height="68" rx="13" fill="#111112"/>
<rect x="140" y="770" width="68" height="68" rx="13" fill="#111112"/>
<rect x="210" y="770" width="68" height="68" rx="13" fill="#111112"/>
<rect x="280" y="770" width="68" height="68" rx="13" fill="#111112"/>
<rect x="350" y="770" width="68" height="68" rx="13" fill="#111112"/>
<rect x="420" y="770" width="68" height="68" rx="13" fill="#111112"/>
<rect x="490" y="770" width="68" height="68" rx="13" fill="#111112"/>
<rect x="560" y="770" width="68" height="68" rx="13" fill="#111112"/>
<rect x="630" y="770" width="68" height="68" rx="13" fill="#111112"/>
<rect x="700" y="770" width="68" height="68" rx="13" fill="#111112"/>
<rect x="770" y="770" width="68" height="68" rx="13" fill="#111112"/>
<rect x="840" y="770" width="68" height="68" rx="13" fill="#111112"/>
<rect x="910" y="770" width="68" height="68" rx="13" fill="#111112"/>
<rect x="980" y="770" width="68" height="68" rx="13" fill="#111112"/>
<rect x="1050" y="770" width="68" height="68" rx="13" fill="#111112"/>
<rect x="1120" y="770" width="68" height="68" rx="13" fill="#111112"/>
<rect x="1190" y="770" width="68" height="68" rx="13" fill="#111112"/>
<rect x="1260" y="770" width="68" height="68" rx="13" fill="#111112"/>
<rect x="1330" y="770" width="68" height="68" rx="13" fill="#111112"/>
<rect x="1400" y="770" width="68" height="68" rx="13" fill="#111112"/>
<rect y="840" width="68" height="68" rx="13" fill="#111112"/>
<rect x="70" y="840" width="68" height="68" rx="13" fill="#111112"/>
<rect x="140" y="840" width="68" height="68" rx="13" fill="#111112"/>
<rect x="210" y="840" width="68" height="68" rx="13" fill="#111112"/>
<rect x="280" y="840" width="68" height="68" rx="13" fill="#111112"/>
<rect x="350" y="840" width="68" height="68" rx="13" fill="#111112"/>
<rect x="420" y="840" width="68" height="68" rx="13" fill="#111112"/>
<rect x="490" y="840" width="68" height="68" rx="13" fill="#111112"/>
<rect x="560" y="840" width="68" height="68" rx="13" fill="#111112"/>
<rect x="630" y="840" width="68" height="68" rx="13" fill="#111112"/>
<rect x="700" y="840" width="68" height="68" rx="13" fill="#111112"/>
<rect x="770" y="840" width="68" height="68" rx="13" fill="#111112"/>
<rect x="840" y="840" width="68" height="68" rx="13" fill="#111112"/>
<rect x="910" y="840" width="68" height="68" rx="13" fill="#111112"/>
<rect x="980" y="840" width="68" height="68" rx="13" fill="#111112"/>
<rect x="1050" y="840" width="68" height="68" rx="13" fill="#111112"/>
<rect x="1120" y="840" width="68" height="68" rx="13" fill="#111112"/>
<rect x="1190" y="840" width="68" height="68" rx="13" fill="#111112"/>
<rect x="1260" y="840" width="68" height="68" rx="13" fill="#111112"/>
<rect x="1330" y="840" width="68" height="68" rx="13" fill="#111112"/>
<rect x="1400" y="840" width="68" height="68" rx="13" fill="#111112"/>
</svg>
