<svg width="152" height="189" viewBox="0 0 152 189" fill="none" xmlns="http://www.w3.org/2000/svg">
<path fill-rule="evenodd" clip-rule="evenodd" d="M119.145 20.1891C116.313 21.0854 113.401 21.7031 110.449 22.0338C106.812 22.5115 106.18 22.7193 106.022 23.5097C105.943 23.9575 106.47 25.8553 107.445 28.7274C108.631 32.1532 111.108 41.1134 111.108 41.9566C111.108 42.0356 110.869 41.9566 110.607 41.7982C108.236 40.5597 105.205 43.3007 105.205 46.6737C105.205 51.997 111.292 54.7642 113.505 50.4421C114.533 48.4656 114.506 45.9882 113.373 41.7982C111.555 34.9462 110.659 31.8896 109.842 29.8607C109.506 29.1084 109.224 28.3335 108.999 27.5417C108.999 27.4099 109.763 27.3028 110.659 27.3028C113.716 27.3028 119.935 26.2219 121.384 25.4581C121.911 25.168 122.228 25.7741 123.783 29.9364C124.706 32.3374 127.187 40.4017 127.187 40.9543C127.187 41.0595 126.686 41.1127 126.08 41.0595C124.551 40.9543 123.734 41.4287 123.049 42.851C122.021 44.8814 122.496 48.2799 123.945 49.4398C125.526 50.6783 128.372 50.6521 129.743 49.3866C130.612 48.5697 130.981 46.4352 130.612 44.3797C130.138 41.8499 127.133 32.0731 125.631 28.2257C123.918 23.8512 121.705 19.8189 120.993 19.7402C120.356 19.7867 119.732 19.9385 119.145 20.1891Z" fill="white"/>
<path fill-rule="evenodd" clip-rule="evenodd" d="M7.13585 101.98C6.03169 102.972 4.78541 103.792 3.43835 104.415C1.08865 105.641 0.0132951 106.411 5.41533e-06 106.89C-0.00368617 107.009 1.8805 110.523 4.17445 114.724C7.09376 120.035 8.63906 123.032 9.28878 124.646C9.80043 125.891 10.28 127.035 10.3401 127.143C10.431 127.304 10.2597 127.376 9.72697 127.394C9.07799 127.477 8.45337 127.693 7.89077 128.027C7.13031 128.376 6.53005 129 6.21036 129.774C5.43402 131.247 5.451 132.277 6.31742 133.816C7.84906 136.537 9.9444 137.244 12.7149 135.966L13.9922 135.387L14.3754 134.017C14.8299 132.282 14.7368 130.448 14.1085 128.768C12.2605 124.346 10.1877 120.022 7.89853 115.811L5.01281 110.437L5.72935 110.198C6.6301 109.842 7.49836 109.409 8.3238 108.902C9.899 108.015 10.342 107.672 11.008 106.802C12.2203 105.27 12.2214 104.728 10.9917 102.544C10.0544 100.879 9.93776 100.756 9.36261 100.656C8.65862 100.532 8.74575 100.481 7.13585 101.98ZM9.36815 103.223C9.64982 103.724 5.52631 107.035 4.09435 107.462C3.33351 107.701 3.34126 107.674 4.64919 106.772C5.39674 106.258 6.59983 105.297 7.3411 104.644C8.90153 103.269 9.25592 103.023 9.36815 103.22V103.223Z" fill="white"/>
<path fill-rule="evenodd" clip-rule="evenodd" d="M30.813 0.133162C25.8571 0.422582 24.2239 0.9239 23.3807 2.42564C23.17 2.82101 22.5368 2.97901 20.0602 3.26953C11.7851 4.2179 2.90425 7.01096 1.00714 9.24917C0.153647 10.1783 0.142204 11.6026 0.980932 12.5454C1.87651 13.3893 2.77246 13.6263 5.98783 13.9187C11.8117 14.4458 17.2405 14.0504 20.7963 12.8909C24.0637 11.837 24.4328 11.7838 27.7006 12.074C33.9195 12.6273 36.2393 13.2084 41.035 15.4208C49.9967 19.5291 53.2645 23.4817 54.8172 31.9668C55.4503 35.472 55.6079 46.1709 55.1074 50.8884C55.0007 52.1532 54.8246 53.4113 54.5802 54.6568C53.029 54.4013 51.497 54.0403 49.9949 53.5759C49.9159 53.5235 50.5748 50.0715 51.6288 45.0114C52.3929 41.2693 53.0785 36.8947 53.0785 35.709C53.0785 34.5233 52.3405 33.6011 51.3918 33.6011C50.206 33.6011 49.6261 34.4443 49.3891 36.4731C49.0465 39.2105 48.5633 41.9282 47.9416 44.6161C46.3889 51.6264 45.0426 58.0822 44.384 61.7458C43.5139 66.5943 41.3004 77.689 39.9058 84.277C39.3258 86.9641 38.7462 89.9166 38.5879 90.8657C38.4295 91.8145 37.9031 94.3439 37.4021 96.5312C36.4276 100.853 35.1887 107.152 34.2373 112.738C33.2886 118.194 32.2871 123.042 31.2859 127.074C30.442 130.5 30.4158 130.764 30.8082 131.369C31.4144 132.265 32.4687 132.107 33.2325 130.974C33.7567 130.028 34.1805 129.03 34.498 127.996C34.8933 126.862 35.3149 125.914 35.4467 125.914C35.5785 125.914 36.6062 126.178 37.7392 126.467C38.8463 126.784 39.9002 127.074 40.0582 127.124C40.269 127.177 40.2166 127.757 39.8999 129.18C39.4259 131.182 38.4768 139.036 38.0552 144.57C37.8163 147.496 38.1604 151.896 39.1091 158.853C39.4783 161.62 41.0594 167.022 42.1133 169.104C44.1326 172.976 46.7371 176.514 49.8347 179.592C53.3922 183.203 55.6866 184.81 59.717 186.603C64.1709 188.553 66.2526 189.001 70.6006 189.001C74.9227 189.001 76.7932 188.711 81.2733 187.261C85.3433 185.938 89.2372 184.124 92.8682 181.859C97.1903 179.276 98.64 178.169 102.83 174.216C107.237 169.933 111.227 165.24 114.746 160.201C117.934 155.773 123.969 146.101 125.102 143.572C125.524 142.623 126.683 140.436 127.659 138.697C130.408 133.997 132.915 129.159 135.169 124.203C137.277 119.538 137.304 119.459 138.068 119.512C141.412 119.802 143.944 119.696 145.262 119.249C147.239 118.537 149.294 116.587 150.454 114.268C151.168 113.06 151.49 111.66 151.376 110.262C151.376 105.097 148.53 98.8514 143.365 92.7112C142.311 91.4726 141.125 89.9967 140.703 89.4168C138.888 87.0874 136.953 84.8532 134.906 82.7236C127.422 74.9229 116.67 69.2042 109.344 69.178C106.872 69.3201 104.449 69.9278 102.203 70.9695C100.159 72.2088 98.6611 74.1772 98.0121 76.4774C97.6643 77.5638 97.444 78.6868 97.3554 79.8242C97.4956 82.1333 98.0963 84.3911 99.1211 86.4646L100.096 88.5205L99.279 91.3401C98.8313 92.8928 97.5396 96.7143 96.4325 99.8256C95.3254 102.937 93.639 108.047 92.7172 111.157C89.95 120.328 87.6048 127.417 86.4187 130.29C85.4699 132.582 81.7802 139.302 80.6476 140.725C79.9909 141.621 78.8561 141.278 78.3784 140.04C78.0092 139.065 77.272 134.348 77.4034 133.979C77.461 132.476 77.4259 130.971 77.2982 129.473C76.7711 119.854 77.1399 103.805 77.9306 102.778C78.4005 102.532 78.9303 102.422 79.4593 102.461H80.7502L80.5919 103.858C80.1703 107.495 82.3834 109.998 84.914 108.681C86.3899 107.917 87.6011 104.49 87.6011 101.091C87.6011 98.0082 86.5471 96.4005 84.4913 96.4005C83.4373 96.4005 82.7256 97.0329 81.83 98.7716L81.0921 100.221L79.5394 100.116C78.9916 100.107 78.4452 100.054 77.9055 99.9574C77.7471 99.7997 78.4326 85.7274 78.6172 85.5428C79.1366 85.3774 79.6797 85.297 80.2245 85.304L81.6739 85.2246L81.7001 86.4104C81.7001 88.5714 81.8057 88.9668 82.4642 89.7571C84.8361 92.603 88.6307 88.3078 88.6569 82.7476C88.6569 79.7696 87.7081 77.9511 86.127 77.9511C85.0993 77.9511 84.0191 79.1106 83.0704 81.2454L82.4642 82.6187L80.5402 82.6449L78.6431 82.6711L78.7483 75.3714C78.8007 71.366 78.8801 67.5711 78.8801 66.9387L78.9063 65.8043L80.7772 65.8837L82.6747 65.9627L82.7802 68.0709C82.9379 71.7075 84.1768 73.104 86.206 72.0239C87.497 71.3121 88.4719 69.6782 89.184 67.096C89.9748 64.1445 89.8408 62.2467 88.7362 60.9026C86.8912 58.6101 84.2299 59.2953 83.3868 62.2991L83.0442 63.5118L81.8584 63.3534C81.2017 63.2741 80.3298 63.1951 79.882 63.1951H79.0909L79.2754 56.6595C79.3807 53.0768 79.5143 49.5705 79.618 48.8857L79.7757 47.6203L81.1198 47.6996L82.4639 47.7786L82.6222 49.7289C82.7536 51.4422 82.8611 51.7593 83.4916 52.3115C84.626 53.2603 85.6264 53.1285 86.944 51.7844C88.6041 50.1243 89.2627 48.1478 89.2889 44.8272C89.3151 42.2184 89.2889 42.1401 88.4981 41.1382C87.8414 40.3213 87.4966 40.1101 86.6272 40.0573C85.9539 39.8857 85.2477 40.1747 84.8878 40.769C84.42 41.3962 84.0472 42.0888 83.7814 42.8242C82.8589 45.4592 83.0434 45.2754 81.2778 45.2754H79.6704L79.8288 43.6149C79.934 42.7193 80.092 41.085 80.2242 39.9783C80.3556 38.8974 80.3818 35.6828 80.3032 32.8369L80.1448 27.6982L80.7772 27.5399C81.9629 27.2235 82.0161 27.2767 82.1213 29.358C82.2007 31.2292 82.2797 31.4138 83.07 32.1252C84.1502 33.1001 84.7301 33.1001 85.8634 32.099C88.2091 30.0173 89.5 23.9299 88.1825 20.9781C87.5763 19.6048 86.9968 19.1866 85.6789 19.1866C84.9147 19.1866 84.6249 19.3711 83.8342 20.3989C83.2291 21.1634 82.8057 22.0557 82.5956 23.0077C82.3317 24.3256 82.2531 24.4042 81.3568 24.5364C81.0042 24.6294 80.6362 24.6475 80.2766 24.5888C80.0466 23.7073 79.8868 22.8087 79.7989 21.9017C79.3773 18.6601 78.2972 14.7865 77.2163 12.7307C76.1623 10.7003 72.2356 6.74886 69.9435 5.40475C65.2256 2.66411 59.2172 1.24138 48.5969 0.345797C42.6763 -0.0277914 36.7406 -0.0986698 30.813 0.133162ZM49.6818 3.63574C61.7784 4.69043 67.4963 6.53474 72.4242 11.04C74.4007 12.8315 75.0069 13.9659 76.114 17.7335C77.0095 20.8692 77.5895 24.9801 77.1679 24.9801C76.193 24.9801 72.212 25.7971 71.8978 26.061C71.6645 26.2869 71.5478 26.6074 71.5814 26.9304C71.7132 27.8529 72.741 28.1427 75.2442 27.9581L77.5371 27.7998L77.7216 30.3824C78.038 34.5993 77.5109 44.9819 76.9575 45.1403C76.7991 45.1927 75.9825 45.2986 75.1394 45.4035C73.7953 45.5618 72.8465 46.0358 72.8465 46.5379C72.8735 47.2227 73.5033 47.5128 75.1394 47.6443L76.9309 47.776L76.8515 54.1027C76.7984 57.5816 76.7198 61.0598 76.6127 61.7978L76.4813 63.1943H75.3218C73.5561 63.1943 72.8443 63.5635 72.8443 64.4853C72.8443 65.3554 73.2135 65.5662 74.7684 65.5662C75.2357 65.5425 75.7031 65.6142 76.1416 65.777C76.458 65.9878 76.2472 82.2736 75.9309 82.5899C75.2963 82.8125 74.627 82.9196 73.9544 82.9059C71.5301 83.0115 71.0554 83.1448 70.7132 83.776C70.4806 84.1197 70.5622 84.586 70.8978 84.83C71.2662 85.2516 71.7147 85.3309 73.559 85.3309C75.2191 85.3309 75.7987 85.4361 75.9046 85.7001C76.063 86.1479 75.5621 98.0067 75.3247 99.1951C75.1663 100.012 75.1139 100.038 73.6114 100.143C72.4519 100.223 71.8989 100.407 71.4504 100.829C70.5286 101.778 71.0812 102.278 73.3744 102.568L75.2985 102.779L75.1139 104.15C74.4815 109.63 74.376 113.979 74.613 126.183C74.8769 138.2 74.9293 139.07 75.4569 140.756C75.9309 142.205 76.2206 142.68 77.0642 143.286C79.1197 144.788 81.3331 144.524 82.6772 142.653C85.0668 138.87 87.2397 134.955 89.1859 130.926C90.3716 128.212 93.8236 117.803 96.0371 110.266C96.9327 107.236 98.3562 102.862 99.2019 100.516C100.046 98.1972 101.021 95.351 101.363 94.2461C101.519 93.5318 101.768 92.8407 102.101 92.1903C102.808 93.0988 103.459 94.0494 104.051 95.0368C107.292 100.018 115.831 107.897 123.315 112.798C127.242 115.381 131.879 117.911 133.804 118.543C134.383 118.728 134.752 118.992 134.673 119.175C132.282 124.828 129.563 130.337 126.53 135.673C125.502 137.491 123.947 140.337 123.052 141.998C116.777 153.719 109.458 163.661 101.095 171.821C96.7466 176.064 95.243 177.195 90.5802 179.882C86.7121 182.166 82.5547 183.921 78.2196 185.099L74.029 186.312L70.7353 186.18C65.1223 185.941 62.0391 184.941 57.1636 181.753C53.0522 179.065 51.1289 177.115 46.5436 171.027C44.0618 167.544 42.4939 163.494 41.9845 159.248C41.4046 154.82 40.9564 149.866 40.9564 147.783C40.9833 143.435 42.1159 133.131 43.0912 128.282C43.5128 126.174 44.119 123.146 44.4091 121.562C44.9891 118.558 46.0164 114.13 47.6503 107.991C48.1513 106.04 48.8889 102.773 49.2577 100.743C50.1532 95.7626 50.8919 91.9658 51.4981 89.2536C51.7879 88.0151 52.1829 85.8016 52.4199 84.3789C52.6587 82.9296 52.9998 81.1107 53.2106 80.3185C53.6883 78.5004 54.8179 72.334 55.3189 68.9868C56.1883 63.005 56.7682 59.3134 57.2691 56.5484C57.5589 54.9145 57.9259 52.1476 58.0861 50.4081C58.2459 48.6687 58.4287 47.0643 58.5077 46.8506C58.7185 46.0606 58.0861 35.0973 57.6907 32.752C56.6095 26.3807 54.4244 21.743 51.0514 18.6594C46.967 14.9172 39.4303 11.2795 33.9749 10.384C31.974 10.1082 29.9595 9.94097 27.9402 9.88375L24.544 9.8317L24.7016 7.45986C24.8862 4.74543 25.2815 3.39948 25.8873 3.34853C27.7062 3.19017 37.7702 3.00595 40.4344 3.05838C42.2488 3.1108 46.4126 3.37438 49.6818 3.63574ZM86.0226 23.4529C86.0226 25.1134 85.4426 27.9592 85.021 28.4089C84.7047 28.7515 84.6519 28.4358 84.7571 25.8532C84.8364 23.9819 84.9959 22.7696 85.2056 22.5093C85.7306 21.9002 86.0207 22.2424 86.0207 23.4548L86.0226 23.4529ZM86.7033 43.6149C86.9421 44.5374 86.4925 47.1976 85.8601 48.5708L85.3894 49.6229L85.2839 48.7012C85.3145 46.8735 85.5345 45.0542 85.9406 43.2723C86.1529 42.692 86.5242 42.8504 86.7033 43.6149ZM52.8957 58.3458L53.9235 58.5042L53.7389 60.1384C53.4225 63.0105 52.0522 71.101 51.1038 75.8428C50.5767 78.3727 49.8649 82.0617 49.5227 84.0119C48.0468 92.0729 47.3617 95.6338 47.2535 95.7386C47.0951 95.8704 42.2466 94.0785 41.9834 93.8146C41.7726 93.6038 42.4574 89.5722 43.3006 85.7536C43.6169 84.4357 44.2755 81.0889 44.7768 78.3494C45.3036 75.5822 46.1501 71.5244 46.6211 69.2847C47.1221 67.0712 47.7282 64.146 47.9652 62.8281C48.176 61.5102 48.492 59.8501 48.65 59.1384L48.914 57.8736L50.4157 58.032C51.2345 58.135 52.342 58.2668 52.8957 58.3458ZM86.7059 62.5889C87.2068 63.2737 87.1544 64.4332 86.5213 66.3049C85.7575 68.5973 85.3869 68.1758 85.6257 65.224C85.8627 62.0617 86.0211 61.6926 86.7037 62.5889H86.7059ZM113.111 72.9191C114.494 73.2465 115.858 73.6515 117.196 74.1314C120.411 75.3437 126.578 79.0873 129.502 81.6157C132.706 84.559 135.683 87.739 138.41 91.1289C139.226 92.2091 140.492 93.8161 141.203 94.6865C145.314 99.6425 148.16 105.623 148.635 110.261C149.03 114.056 145.973 117.218 141.915 117.218C138.278 117.218 135.511 116.506 131.769 114.662C127.754 112.482 123.913 109.998 120.279 107.23C117.644 105.122 110.397 98.3489 108.842 96.5571C104.257 91.2869 99.9875 83.2227 99.9875 79.7972C99.9875 77.373 101.569 74.5526 103.519 73.5514C105.706 72.3915 109.607 72.1545 113.111 72.9191ZM86.2053 83.2492C86.0469 84.9359 84.8612 87.8346 84.4396 87.5714C83.8334 87.2022 84.5186 82.749 85.4145 81.4049C85.7837 80.825 85.8361 80.7988 86.0993 81.2466C86.2607 81.9014 86.2965 82.5807 86.2053 83.2492ZM44.1197 99.1659C44.909 99.3796 45.6835 99.6436 46.4388 99.9566C46.6234 100.141 45.49 105.331 44.5147 108.785C43.5398 112.239 42.4596 116.823 41.8797 120.117C41.2473 123.569 41.5637 123.332 38.7699 122.386C37.4265 121.937 36.2932 121.542 36.2666 121.516C36.1082 121.437 39.8242 102.015 40.4566 99.4852C40.7737 98.2703 41.0631 98.2441 44.1197 99.1659ZM85.1244 99.7196C85.467 101.116 84.5976 105.597 83.8859 106.044C83.7541 106.124 83.5167 105.86 83.3857 105.464C83.0955 104.727 83.3587 102.197 83.9387 100.01C84.2288 98.8765 84.8874 98.7181 85.1244 99.7196Z" fill="white"/>
<path fill-rule="evenodd" clip-rule="evenodd" d="M58.9829 27.2755C59.7209 30.8581 60.2218 38.74 60.2484 47.1188C60.2746 50.9404 60.169 52.7581 59.853 54.234C59.6142 55.3142 59.3521 56.7904 59.2731 57.5276C58.9305 60.2949 58.2715 64.2751 57.5074 68.1742C56.7432 72.0732 56.7432 73.0497 57.5336 72.5749C57.9552 72.3117 58.2191 71.0732 59.6684 62.5611C60.4064 58.239 61.0388 54.629 61.0915 54.5234C61.9609 53.1269 61.6977 35.5494 60.7752 31.176C60.196 28.5409 59.4842 26.5645 59.0889 26.5645C58.9563 26.5645 58.9039 26.8801 58.9829 27.2755Z" fill="white"/>
<path fill-rule="evenodd" clip-rule="evenodd" d="M71.2894 109.918C70.7884 111.209 69.8921 119.089 69.4181 126.336C69.2044 128.65 69.2044 130.979 69.4181 133.293C69.5499 134.769 69.6813 136.034 69.6813 136.086C69.6813 136.139 69.7869 136.192 69.8921 136.192C70.0239 136.192 70.2085 133.32 70.2875 129.788C70.3931 125.967 70.6566 121.727 70.973 119.195C71.5792 114.346 71.948 109.313 71.6848 109.313C71.6054 109.312 71.4208 109.575 71.2894 109.918Z" fill="white"/>
<path fill-rule="evenodd" clip-rule="evenodd" d="M49.5761 111.341C48.8382 113.212 47.4941 119.906 47.7846 120.196C47.9164 120.327 48.0744 120.327 48.1272 120.196C48.8433 118.152 49.3982 116.056 49.7873 113.926C50.0261 112.608 50.2882 111.291 50.3672 110.948C50.6035 109.997 49.9977 110.287 49.5761 111.341Z" fill="white"/>
<path fill-rule="evenodd" clip-rule="evenodd" d="M118.567 112.738C118.145 113.423 117.17 116.691 117.381 116.691C117.671 116.691 119.226 113.713 119.226 113.159C119.225 112.659 118.777 112.371 118.567 112.738Z" fill="white"/>
<path fill-rule="evenodd" clip-rule="evenodd" d="M67.9965 117.007C66.9426 121.592 66.7318 124.069 66.6786 131.896C66.6524 137.693 66.7318 139.67 66.9688 139.907C67.1533 140.092 67.3641 140.17 67.4428 140.092C67.5483 140.013 67.706 135.928 67.8381 131.026C67.9699 125.361 68.2073 120.907 68.4949 118.852C68.785 116.717 68.864 115.508 68.6795 115.321C68.524 115.162 68.2863 115.741 67.9965 117.007Z" fill="white"/>
<path fill-rule="evenodd" clip-rule="evenodd" d="M121.176 117.402C119.12 121.829 118.778 122.672 118.33 124.016C118.067 124.78 117.908 125.492 118.013 125.569C118.198 125.753 122.969 116.161 122.836 115.819C122.572 115.003 122.046 115.53 121.176 117.402Z" fill="white"/>
<path fill-rule="evenodd" clip-rule="evenodd" d="M122.202 124.675C120.568 128.019 118.829 131.816 118.328 133.082C117.801 134.347 117.143 135.849 116.852 136.429C116.273 137.588 116.22 137.772 116.536 137.772C116.799 137.772 117.801 135.769 119.092 132.791C119.619 131.553 120.62 129.55 121.306 128.313C123.441 124.518 126.102 119.063 125.944 118.8C125.522 118.087 124.918 119.01 122.202 124.675Z" fill="white"/>
<path fill-rule="evenodd" clip-rule="evenodd" d="M128.975 120.432C127.894 122.25 123.072 132.08 122.36 133.872C122.07 134.636 120.752 137.216 119.488 139.617C116.694 144.782 112.74 153.241 112.979 153.505C113.401 153.9 116.22 149.525 119.225 143.831C120.569 141.301 121.992 138.613 122.389 137.902C122.873 137.041 123.304 136.153 123.681 135.24C123.97 134.476 125.262 131.709 126.553 129.047C130.269 121.352 130.901 119.903 130.744 119.481C130.424 118.693 129.765 119.062 128.975 120.432Z" fill="white"/>
<path fill-rule="evenodd" clip-rule="evenodd" d="M45.9635 126.363C45.7733 127.809 45.5005 129.243 45.1465 130.658C43.17 139.436 43.0645 152.557 44.9077 159.831C45.7826 163.296 46.9735 166.674 48.4652 169.922C49.3354 171.687 50.8633 173.611 51.3912 173.611C51.602 173.611 51.7604 173.559 51.7604 173.506C51.7604 173.427 51.2332 172.32 50.5746 171.029C45.4621 160.883 43.9072 148.787 45.8575 134.609C46.7007 128.496 46.8062 125.652 46.2001 125.652C46.0687 125.651 45.9635 125.968 45.9635 126.363Z" fill="white"/>
<path fill-rule="evenodd" clip-rule="evenodd" d="M96.6154 128.206C94.323 129.313 90.95 135.796 90.5808 139.722C90.4752 141.092 90.5284 141.435 91.0024 142.041C91.8455 143.095 92.8733 143.201 94.5075 142.436C97.301 141.145 98.5919 139.696 100.568 135.795C102.018 132.923 102.229 130.867 101.201 129.339C100.146 127.732 98.4332 127.311 96.6154 128.206ZM99.4089 131.421C99.5144 132.687 98.3811 135.4 96.8 137.667C95.9831 138.879 93.7958 140.513 93.3742 140.25C92.3993 139.67 95.1923 132.897 97.2482 130.841C97.5845 130.414 98.1017 130.171 98.6447 130.184C99.2498 130.262 99.3284 130.393 99.4074 131.419L99.4089 131.421Z" fill="white"/>
<path fill-rule="evenodd" clip-rule="evenodd" d="M89.8147 146.128C89.2875 146.207 88.1808 146.892 86.7843 147.999C84.1223 150.134 83.1211 151.794 83.1211 154.007C83.1211 155.668 83.6745 156.221 85.3084 156.221C86.7581 156.221 88.0756 155.43 89.8675 153.507C91.7915 151.476 92.4501 150.16 92.4763 148.499C92.4763 147.419 92.3711 147.103 91.7387 146.576C91.4822 146.312 91.1658 146.113 90.8162 145.996C90.711 145.996 90.2625 146.075 89.8147 146.128ZM90.4995 148.815C90.4995 150.317 86.0725 154.796 85.3342 154.032C85.0954 153.822 85.7296 152.002 86.3623 151.106C87.019 150.184 89.945 147.997 90.2621 148.207C90.4282 148.365 90.515 148.588 90.4991 148.816V148.815H90.4995Z" fill="white"/>
<path fill-rule="evenodd" clip-rule="evenodd" d="M79.7771 158.96C78.5387 159.514 77.274 161.385 77.3792 162.543L77.4586 163.465H78.8288C79.9879 163.439 80.3305 163.307 81.016 162.675C81.8971 161.813 82.3589 160.61 82.2806 159.38C82.1732 158.591 81.0669 158.409 79.7771 158.96ZM80.752 160.383C80.752 160.805 79.9089 161.756 79.5398 161.756C79.2238 161.756 79.25 161.599 79.6981 160.966C80.2234 160.225 80.7502 159.935 80.7502 160.383H80.752V160.383Z" fill="white"/>
<path fill-rule="evenodd" clip-rule="evenodd" d="M101.779 77.2685C100.619 78.428 101.647 84.7528 103.518 87.9412C104.256 89.1797 104.335 88.5979 103.703 86.7027C102.902 84.4497 102.466 82.083 102.412 79.6924C102.228 76.9521 102.201 76.8207 101.779 77.2685Z" fill="white"/>
<path fill-rule="evenodd" clip-rule="evenodd" d="M108.553 82.8265C107.973 83.0372 107.472 83.2218 107.472 83.2218C107.287 83.5279 107.12 83.8446 106.972 84.1706C106.667 84.7531 106.574 85.4239 106.708 86.0677C107.499 90.3632 115.008 98.4013 126.762 107.545C128.845 109.179 133.193 111.155 134.695 111.155C136.909 111.155 138.306 108.994 137.7 106.544C137.357 105.171 134.668 99.6394 133.325 97.5839C132.561 96.4407 131.734 95.3406 130.848 94.2896C129.952 93.2087 128.713 91.7069 128.107 90.969C125.366 87.6754 120.728 84.2754 117.381 83.1162C115.405 82.4311 110.055 82.2465 108.553 82.8265Z" fill="white"/>
<path fill-rule="evenodd" clip-rule="evenodd" d="M134.771 114.162C134.771 114.847 139.066 116.164 141.359 116.164C142.571 116.164 144.574 115.427 144.916 114.847C145.075 114.608 144.837 114.583 143.968 114.742C141.666 115.099 139.314 114.973 137.063 114.372C134.64 113.684 134.771 113.684 134.771 114.162Z" fill="white"/>
</svg>
