<svg width="245" height="224" viewBox="0 0 245 224" fill="none" xmlns="http://www.w3.org/2000/svg">
<path fill-rule="evenodd" clip-rule="evenodd" d="M230.224 8.42867C226.7 9.54398 223.076 10.3124 219.404 10.7238C214.879 11.3183 214.092 11.5768 213.895 12.5602C213.797 13.1174 214.452 15.4785 215.666 19.0519C217.141 23.3143 220.224 34.4627 220.224 35.5116C220.224 35.6096 219.926 35.5116 219.6 35.3147C216.65 33.7736 212.879 37.1841 212.879 41.3806C212.879 48.0032 220.453 51.4461 223.206 46.0693C224.485 43.6103 224.452 40.5276 223.041 35.3147C220.779 26.7893 219.665 22.9865 218.648 20.462C218.23 19.5259 217.88 18.5621 217.599 17.5763C217.599 17.4119 218.55 17.279 219.665 17.279C223.468 17.279 231.206 15.9343 233.01 14.9839C233.665 14.6226 234.058 15.3767 235.993 20.5562C237.141 23.5399 240.223 33.5734 240.223 34.262C240.223 34.3929 239.6 34.4589 238.845 34.3929C236.944 34.262 235.927 34.8521 235.075 36.6216C233.796 39.1476 234.386 43.3766 236.189 44.8193C238.156 46.3603 241.697 46.3274 243.402 44.7533C244.484 43.7369 244.943 41.081 244.484 38.5235C243.895 35.3759 240.157 23.2116 238.287 18.4249C236.156 12.9812 233.402 7.96515 232.517 7.86719C231.727 7.92596 230.952 8.11567 230.224 8.42867Z" fill="black"/>
<path fill-rule="evenodd" clip-rule="evenodd" d="M186.693 23.0248C184.905 23.3493 179.704 24.3251 175.112 25.1795C170.52 26.0712 164.588 27.1306 161.906 27.618C153.616 28.9986 127.119 34.3252 115.988 36.7595C95.3043 41.3092 56.6608 51.1444 50.8925 53.2982C46.1378 55.0457 45.1219 57.3619 45.854 64.7983C46.0977 67.4805 46.707 73.6162 47.1131 78.4116C48.0048 87.8799 48.6576 93.284 49.9578 101.167C53.1681 120.956 54.8745 132.415 54.7125 133.472C54.1984 135.208 53.5604 136.906 52.803 138.552C50.73 143.184 50.4457 145.216 51.3804 149.361C52.4776 154.359 58.2898 169.8 59.7109 171.547C60.9299 173.051 63.8148 172.969 74.1361 171.101C79.2974 170.167 86.6115 168.786 90.3904 168.013C97.2176 166.632 101.769 165.819 108.473 164.762C118.429 163.178 125.175 161.917 131.23 160.453C134.927 159.562 140.413 158.381 143.461 157.853C146.468 157.325 151.344 156.349 154.229 155.658C157.114 155.008 161.95 154.033 164.957 153.586C167.964 153.099 177.391 151.351 185.884 149.685C209.9 145.012 212.135 144.565 214.532 144.199C217.986 143.631 222.618 141.842 223.15 140.868C223.638 139.976 223.313 120.834 222.744 113.844L222.46 110.431L220.184 108.359C218.966 107.181 217.014 105.434 215.837 104.418L213.682 102.589L213.276 98.7258C213.032 96.6127 212.585 93.4025 212.26 91.6143C211.936 89.8262 211.407 86.5356 211.082 84.3002C210.757 82.0648 209.944 77.3909 209.254 73.9383C206.002 56.8711 204.336 47.4439 201.492 30.2529C201.238 28.2168 200.816 26.205 200.229 24.2386C199.209 22.2932 193.358 21.7647 186.693 23.0248ZM196.405 27.4943C196.527 28.1441 196.933 30.6238 197.258 33.1019C198.559 41.6355 201.122 55.8987 203.394 66.8316C204.613 72.845 206.158 80.6503 206.807 84.1014C207.457 87.5525 208.595 93.7723 209.368 97.8762L210.749 105.353L212.74 107.223C213.837 108.239 215.585 109.823 216.641 110.714L218.551 112.34L218.795 124.937C218.917 131.846 218.876 137.778 218.673 138.022C218.511 138.306 216.154 138.913 213.512 139.359C210.83 139.847 208.067 140.334 207.335 140.456C206.157 140.659 205.995 140.578 205.385 139.115C203.676 135.011 192.91 116.319 191.203 114.45C190.612 113.845 189.889 113.386 189.09 113.109C187.871 112.783 173.405 115.059 163.734 117.05C160.483 117.741 156.013 118.635 153.778 119.042C138.052 122.049 134.476 122.699 130.375 123.308C122.005 124.487 102.824 128.266 97.0948 129.811C95.1848 130.339 91.8527 131.148 89.6588 131.639C85.3103 132.614 83.9293 133.548 83.5226 135.865C83.1571 138.019 82.3442 158.905 82.5473 161.709L82.7509 164.431L74.0586 166.14C69.2638 167.074 64.6314 168.09 63.8186 168.415L62.3148 168.943L60.3646 163.376C55.8135 150.454 54.3097 145.334 54.7976 144.562C55.0413 144.156 56.1786 141.516 57.2762 138.711L59.3482 133.59L58.9024 129.445C58.6587 127.211 58.0107 122.579 57.4798 119.246C56.4644 113.069 55.2047 104.455 53.4166 92.02C52.8885 88.2005 52.1536 81.8211 51.7909 77.798C50.9307 68.5748 49.9961 59.7182 49.7113 58.8246C49.4269 57.8899 48.4483 58.1336 82.8699 49.3974C104.203 43.9517 131.756 37.9383 154.591 33.6715C160.646 32.5333 171.415 30.4613 178.566 29.0387C185.718 27.6161 192.626 26.4793 193.886 26.4382C196.079 26.3971 196.201 26.4377 196.405 27.4943ZM190.715 120.712C192.828 124.369 201.523 141.03 201.523 141.436C200.79 141.747 200.004 141.912 199.208 141.924C197.907 142.086 190.715 143.468 183.238 145.012C175.761 146.556 167.147 148.222 164.139 148.669C161.132 149.157 156.012 150.173 152.762 150.945C149.511 151.717 145.041 152.611 142.806 152.977C140.571 153.343 135.369 154.439 131.225 155.414C123.504 157.202 111.598 159.396 98.1064 161.55C96.1152 161.835 92.7023 162.485 90.5892 162.891C89.289 163.193 87.9729 163.424 86.6474 163.582C86.5666 163.542 86.6474 157.365 86.8098 149.847L87.0535 136.194L90.1419 135.706C91.8508 135.463 95.8715 134.61 99.1228 133.878C107.331 131.928 124.641 128.474 131.428 127.376C134.556 126.889 138.661 126.157 140.57 125.792C142.48 125.426 146.666 124.695 149.917 124.125C153.167 123.556 158.003 122.623 160.685 122.094C163.367 121.566 170.316 120.265 176.126 119.249C181.937 118.234 186.973 117.339 187.301 117.258C188.441 117.015 188.725 117.258 190.715 120.712Z" fill="black"/>
<path fill-rule="evenodd" clip-rule="evenodd" d="M179.988 33.3046C177.428 33.6706 172.308 34.6865 168.611 35.4592C164.912 36.272 158.614 37.4911 154.591 38.1821C150.568 38.873 145.652 39.8077 143.62 40.2541C136.103 41.9629 124.806 44.3579 121.677 44.927C118.507 45.4962 111.276 47.0401 98.7196 49.8031C95.2657 50.5758 90.6735 51.5913 88.5604 51.9979C86.4473 52.4438 82.0586 53.5419 78.8077 54.4364C75.5569 55.331 70.8418 56.6298 68.2815 57.2821C63.3648 58.6229 59.5892 60.2897 58.2851 61.7525C57.1884 62.9715 57.2697 66.9941 58.6512 76.8284C63.446 111.531 63.8517 114.009 65.7617 122.258C66.5335 125.631 67.1843 127.5 67.6717 127.866C69.7848 129.41 82.5441 127.378 107.048 121.689C117.532 119.21 132.404 116.122 138.337 115.147C146.138 113.846 173.608 108.361 179.948 106.816C187.465 104.988 192.504 103.932 198.477 102.997C202.988 102.265 204.369 101.615 204.369 100.193C204.369 97.3482 195.47 53.4616 192.747 42.8966C190.878 35.6642 190.066 33.9167 188.034 33.1038C186.165 32.3699 185.922 32.3699 179.988 33.3046ZM188.847 35.9466C189.54 38.3135 190.11 40.7137 190.556 43.1389C191.247 46.5518 192.06 50.2494 192.384 51.3858C193.238 54.5143 198.155 80.1959 199.13 86.7383C199.292 88.0758 199.861 90.9238 200.309 93.0369C200.796 95.15 201.283 97.4657 201.405 98.1973C201.65 99.6194 201.893 99.4976 197.829 100.269L195.96 100.635L193.929 94.093C191.165 85.2751 187.548 75.2376 186.248 72.6376C183.12 66.4207 179.299 62.0721 175.401 60.2845C168.899 57.3179 162.926 57.3585 156.993 60.3652C154.311 61.7028 150.41 65.7292 148.947 68.5734C142.161 81.9836 151.711 97.9125 166.542 97.9125C175.959 98.0248 184.097 91.3596 185.844 82.1054L186.332 79.4232L189.866 90.1507C191.817 96.0837 193.279 101.042 193.118 101.163C192.712 101.529 180.236 104.252 167.189 106.81C161.622 107.907 154.105 109.451 150.529 110.264C146.952 111.036 143.011 111.768 141.792 111.93C134.721 112.783 121.514 115.343 106.236 118.919C95.183 121.479 79.1322 124.73 77.5878 124.73C76.7348 124.73 76.7749 125.054 75.5564 116.399C74.2934 107.785 73.8476 104.046 74.0119 103.559C74.0937 103.315 74.7029 103.883 75.3528 104.818C77.9485 108.213 81.23 111.023 84.9836 113.065C92.7359 116.837 101.823 116.687 109.446 112.659C113.875 110.302 119.198 104.816 121.392 100.347C123.74 95.8343 124.914 90.8034 124.806 85.718C124.846 77.2657 122.165 70.5618 116.394 64.7907C111.315 59.6704 106.235 57.3547 99.327 56.9896C93.9229 56.7058 91.2407 57.274 86.1204 59.7536C83.2685 61.0189 80.7087 62.8606 78.6027 65.162C72.8321 71.0134 70.3128 76.7023 69.9473 84.9109C69.8507 87.7585 69.9458 90.6094 70.2316 93.4445C70.5154 95.5576 71.0033 99.5807 71.3689 102.384C71.6943 105.187 72.5879 111.486 73.3601 116.363C74.1319 121.279 74.701 125.302 74.6604 125.343C73.8614 125.567 73.0467 125.73 72.2228 125.83C69.9473 126.236 69.9062 126.196 69.5 125.18C68.9486 123.164 68.5276 121.114 68.2408 119.044C66.9779 111.364 66.737 110.186 65.8434 106.447C65.0707 103.237 64.5427 100.189 61.3324 80.0339C60.6825 75.8899 59.9514 70.4036 59.7077 67.8437C59.2619 63.2515 59.2619 63.2114 60.1951 62.4798C61.6579 61.3826 64.6645 60.3667 71.2886 58.7415C74.6609 57.9286 78.7657 56.9132 80.4315 56.4659C82.0973 56.0186 85.6736 55.2067 88.3549 54.6782C91.0371 54.1091 95.3445 53.1744 97.9049 52.6053C103.594 51.3423 113.793 49.0706 119.035 47.9328C121.148 47.4449 124.439 46.7137 126.349 46.3071C128.259 45.9004 132.2 45.1688 135.086 44.6814C138.012 44.2356 142.644 43.2994 145.448 42.6496C155.16 40.4146 166.416 38.1801 174.096 36.9607C178.362 36.2697 182.548 35.5787 183.442 35.3761C184.527 35.1582 185.628 35.0225 186.734 34.9699C188.115 34.9302 188.481 35.0927 188.847 35.9466ZM106.845 64.2689C109.073 65.3154 111.118 66.715 112.9 68.4138C115.379 70.8112 117.736 74.1433 117.288 74.5901C117.166 74.712 115.379 73.0873 113.265 70.9737C108.998 66.6644 105.382 64.5537 100.871 63.7002C99.1249 63.3757 98.312 63.0503 98.312 62.6437C98.3116 61.4653 102.985 62.3588 106.845 64.2689ZM172.999 64.0256C175.6 65.3259 180.314 70.2837 178.932 70.2837C177.973 69.6204 177.075 68.8721 176.25 68.0482C173.812 65.7732 171.78 64.5135 169.708 64.0261C169.098 63.8636 168.692 63.5803 168.816 63.3762C169.261 62.6843 170.804 62.928 172.999 64.0256ZM172.187 66.9912C174.422 68.1295 178.119 72.3146 176.9 72.3146C176.087 71.7765 175.325 71.1644 174.625 70.4863C173.535 69.5024 172.319 68.669 171.008 68.0076C169.424 67.276 168.854 66.2195 170.033 66.2195C170.787 66.3624 171.513 66.6228 172.187 66.9912ZM105.91 69.5105C108.47 70.7295 113.346 74.9156 113.346 75.8909C113.346 76.5001 113.305 76.5001 109.445 73.7362C107.827 72.5798 106.114 71.561 104.325 70.6903C102.988 70.1623 101.968 69.4273 101.683 68.8209C101.277 67.8862 101.277 67.8456 102.293 68.0893C103.536 68.4621 104.746 68.9375 105.91 69.5105ZM171.496 71.258C173.485 72.7824 174.667 75.1325 174.706 77.6379C174.501 80.4023 173.234 82.9799 171.17 84.8302C169.22 86.2929 164.994 86.5777 163.084 85.3582C160.948 84.0857 159.557 81.8622 159.346 79.385C158.777 72.3963 165.929 67.601 171.496 71.258ZM100.994 77.3942C103.845 78.3265 106.193 80.3813 107.496 83.0836C108.47 85.115 108.552 85.6841 108.387 88.5288C108.225 91.0074 107.981 92.1046 107.124 93.5673C104.889 97.3869 100.542 99.5817 96.9253 98.809C86.7259 96.6543 85.0194 82.6774 94.3248 78.0446C97.1332 76.622 98.108 76.5412 100.994 77.3942ZM158.208 86.4965C160.484 88.8122 164.791 91.4132 166.335 91.4132C166.701 91.4132 166.985 91.5756 166.985 91.8193C166.985 92.5103 163.612 92.2652 161.743 91.4132C158.411 89.8692 155.201 86.6183 155.201 84.7489C155.202 83.6929 155.729 83.9772 158.208 86.4965ZM161.337 85.5212C162.477 86.4898 163.717 87.3346 165.035 88.0404C166.864 88.9751 167.067 89.1787 166.214 89.3034C164.791 89.506 160.403 87.2305 159.59 85.8117C158.981 84.7962 158.981 84.1029 159.59 84.1029C160.211 84.5248 160.796 84.9993 161.337 85.5212ZM77.7125 98.5653C79.2163 101.166 85.0275 105.879 89.0908 107.871C90.8775 108.693 92.7426 109.333 94.6578 109.781C98.3961 110.552 98.4774 111.489 94.7797 111.243C90.391 111 84.9458 107.992 79.298 102.629C77.9605 101.41 75.5597 98.2403 75.5597 97.7123C75.5583 97.265 77.3842 97.9952 77.7125 98.5653ZM86.3307 100.597C87.9898 101.882 89.7541 103.025 91.6058 104.013C94.5723 105.558 95.8315 106.614 95.344 107.102C95.0597 107.386 91.8523 106.126 89.6145 104.867C87.5014 103.648 82.4629 99.3399 82.4629 98.7306C82.4672 98.0368 84.3729 98.9304 86.324 100.595L86.3307 100.597Z" fill="black"/>
<path fill-rule="evenodd" clip-rule="evenodd" d="M184.337 37.286C183.483 38.2207 183.483 38.7488 184.296 39.5616C185.108 40.415 185.515 40.3744 186.489 39.3996C187.464 38.4248 187.506 38.0176 186.652 37.2048C185.84 36.3523 185.149 36.3924 184.337 37.286Z" fill="black"/>
<path fill-rule="evenodd" clip-rule="evenodd" d="M61.6168 63.2526C61.1294 63.7404 61.3325 65.2844 61.9423 65.8129C63.3644 66.9913 65.3962 64.7564 64.0969 63.4561C63.5679 62.9276 62.0641 62.8058 61.6168 63.2526Z" fill="black"/>
<path fill-rule="evenodd" clip-rule="evenodd" d="M166.172 71.4206C164.994 71.583 163.084 73.2488 162.271 74.8334C161.885 75.802 161.692 76.8366 161.703 77.8793C161.703 85.8437 172.796 86.2092 173.367 78.2448C173.751 74.8353 171.299 71.7594 167.89 71.3747C167.318 71.3107 166.74 71.326 166.172 71.4206ZM169.463 73.9403C170.818 74.9319 171.521 76.5862 171.293 78.2496C171.008 79.7534 169.017 81.6624 167.757 81.6624C165.6 81.5482 163.87 79.8361 163.734 77.6805C163.734 76.0147 164.709 74.0641 165.644 73.817C166.9 73.4586 168.236 73.5016 169.466 73.9403H169.463Z" fill="black"/>
<path fill-rule="evenodd" clip-rule="evenodd" d="M97.7015 78.6125C97.2079 78.7626 96.7061 78.8849 96.1987 78.9781C94.6131 79.3441 92.2167 81.5786 91.3628 83.4886C90.2379 86.145 90.3421 89.1626 91.6471 91.7354C94.4511 97.3425 101.481 97.2613 104.691 91.5729C105.957 89.5272 106.24 87.0228 105.463 84.7458C104.731 82.3073 103.268 80.3166 101.599 79.4636C100.384 78.8816 99.0491 78.5901 97.7015 78.6125ZM101.765 82.0665C105.747 85.9299 103.35 93.8509 98.1894 93.8509C95.8728 93.8509 94.1257 92.672 93.0281 90.3969C92.4021 89.3318 92.1718 88.0798 92.3782 86.8613C93.3143 81.0912 98.1894 78.6125 101.765 82.0665Z" fill="black"/>
<path fill-rule="evenodd" clip-rule="evenodd" d="M204.573 112.219C204.421 112.846 204.326 113.485 204.289 114.129C204.167 115.307 203.963 115.551 202.744 115.958C201.729 116.282 201.322 116.648 201.322 117.217C201.322 117.908 201.566 118.03 203.232 117.949C205.061 117.908 205.102 117.949 205.387 119.289C205.671 120.833 206.687 121.524 207.255 120.627C207.526 119.928 207.651 119.181 207.622 118.432C207.622 116.969 207.784 116.723 209.125 115.994C211.36 114.775 211.4 114.002 209.165 114.328C207.418 114.572 207.378 114.572 207.011 113.271C206.604 111.853 204.939 111.163 204.573 112.219Z" fill="black"/>
<path fill-rule="evenodd" clip-rule="evenodd" d="M67.185 137.86C67.0492 138.405 67.0215 138.971 67.1032 139.527C67.2251 140.502 67.0225 140.705 65.6812 141.193C63.6899 141.884 63.5265 142.046 64.1773 142.818C64.5835 143.306 65.112 143.427 66.2904 143.224C67.6724 142.981 67.875 143.062 68.2415 144.037C68.7695 145.418 69.6225 145.134 69.7854 143.549C69.7883 142.814 70.2385 142.154 70.9227 141.884C72.3453 141.193 72.2235 140.136 70.7201 140.421C69.6636 140.665 69.5417 140.543 69.1762 139.121C68.8097 137.495 67.6313 136.763 67.185 137.86Z" fill="black"/>
<path fill-rule="evenodd" clip-rule="evenodd" d="M167.961 124.897C166.213 125.548 165.442 126.235 165.157 127.539C164.716 129.454 165.911 131.363 167.826 131.804C168.491 131.957 169.187 131.915 169.83 131.683C171.943 131.033 172.876 129.895 172.836 127.864C172.901 126.864 172.477 125.894 171.699 125.263C170.52 124.247 169.87 124.166 167.961 124.897ZM170.398 127.417C170.764 128.309 169.953 129.204 168.773 129.204C167.392 129.204 167.107 128.392 168.205 127.496C169.342 126.604 170.074 126.563 170.398 127.416V127.417Z" fill="black"/>
<path fill-rule="evenodd" clip-rule="evenodd" d="M185.271 131.927C183.442 132.576 181.614 135.624 181.614 137.9C181.614 140.297 184.58 141.841 187.994 141.191C189.925 140.715 191.439 139.216 191.935 137.289C192.26 135.542 191.529 133.023 190.432 132.251C189.578 131.642 186.53 131.479 185.271 131.927ZM188.441 134.324C190.35 135.665 189.05 138.55 186.572 138.55C184.093 138.55 183.767 138.104 184.662 136.111C185.759 133.714 186.815 133.185 188.441 134.324V134.324Z" fill="black"/>
<path fill-rule="evenodd" clip-rule="evenodd" d="M111.477 135.706C108.431 136.925 107.985 141.798 110.827 142.98C112.453 143.67 115.137 142.939 116.028 141.558C117.043 140.055 116.556 137.454 115.093 136.275C114.133 135.333 112.68 135.104 111.477 135.706ZM113.955 139.16C113.955 139.729 113.631 140.013 112.858 140.094C111.64 140.257 111.314 139.526 112.208 138.632C112.94 137.9 113.955 138.225 113.955 139.16Z" fill="black"/>
<path fill-rule="evenodd" clip-rule="evenodd" d="M95.8322 147.491C93.882 148.019 93.1098 148.67 92.2162 150.62C91.1592 152.895 91.2816 155.658 92.5001 156.919C94.1664 158.544 98.6362 158.544 100.505 156.919C103.024 154.684 102.862 149.645 100.261 148.263C98.9139 147.516 97.3537 147.244 95.8322 147.491ZM99.1643 150.782C100.873 152.491 99.0835 155.375 96.4419 155.293C93.679 155.171 93.15 153.465 95.1011 151.026C95.954 149.849 97.5998 149.586 98.7772 150.439C98.9172 150.541 99.0467 150.656 99.1643 150.782Z" fill="black"/>
<path fill-rule="evenodd" clip-rule="evenodd" d="M51.8615 0.757033C51.2923 1.85419 51.3736 10.4279 51.9833 12.1754C52.5114 13.76 53.8116 14.2483 54.7057 13.1918C55.1515 12.6638 55.1515 11.5661 54.7057 6.77132C54.4213 3.60171 54.0964 0.798132 54.0147 0.51333C53.6897 -0.29759 52.3489 -0.096416 51.8615 0.757033Z" fill="black"/>
<path fill-rule="evenodd" clip-rule="evenodd" d="M61.8175 15.6713C57.954 16.4029 57.1445 16.8086 57.1445 18.0281C57.1445 19.5725 58.0792 20.0599 60.7203 19.7756C63.8498 19.4511 68.9284 17.8255 69.4565 17.0126C69.6882 16.6069 69.7465 16.1248 69.6189 15.6751C69.2945 14.8589 65.9624 14.8589 61.8175 15.6713Z" fill="black"/>
<path fill-rule="evenodd" clip-rule="evenodd" d="M42.15 17.0129C39.3054 18.0283 38.5733 19.126 39.9146 20.4668C40.6056 21.198 41.9465 21.2386 46.7417 20.7512C49.1391 20.5075 50.1149 20.2231 50.5211 19.654C51.0988 18.6668 50.835 17.4024 49.9114 16.7281C48.9757 15.996 44.6693 16.158 42.15 17.0129Z" fill="black"/>
<path fill-rule="evenodd" clip-rule="evenodd" d="M53.0802 22.7008C52.6343 23.5543 52.512 32.4127 52.9182 34.4852C53.1141 35.2555 53.5561 35.9403 54.1773 36.4353C55.112 37.0446 55.2339 37.0446 55.9655 36.2729C56.7783 35.5011 56.7783 35.2574 56.331 29.2025C56.0873 25.7897 55.6811 22.739 55.4394 22.4571C54.9309 21.8512 54.0273 21.7719 53.4214 22.2803C53.2823 22.3974 53.1662 22.5403 53.0802 22.7008Z" fill="black"/>
<path fill-rule="evenodd" clip-rule="evenodd" d="M21.3744 96.5687C21.0088 97.1378 20.3179 105.956 20.3179 110.016C20.3179 112.495 20.4803 113.754 20.9687 114.405C21.7806 115.543 22.5934 115.543 23.3661 114.324C23.8941 113.552 23.9754 112.007 23.8941 104.897L23.7747 96.4062L22.6751 96.2853C22.106 96.2031 21.4967 96.325 21.3744 96.5687Z" fill="black"/>
<path fill-rule="evenodd" clip-rule="evenodd" d="M35.3526 117.984C27.8354 118.715 25.1532 119.488 26.3727 120.707C27.348 121.682 39.7011 122.169 41.4486 121.276C42.7116 120.625 43.0332 119 42.0168 118.268C41.3267 117.781 38.8882 117.659 35.3526 117.984Z" fill="black"/>
<path fill-rule="evenodd" clip-rule="evenodd" d="M0.528637 118.593C0.179325 119.078 -0.00560483 119.662 0.000129434 120.259C0.000129434 122.21 1.05667 122.414 9.18355 121.844C13.1249 121.559 16.6195 121.234 16.9043 121.113C17.2937 120.871 17.5135 120.431 17.4734 119.974C17.4734 118.715 16.9043 118.637 8.28996 118.308C2.56048 118.105 0.891807 118.146 0.528637 118.593Z" fill="black"/>
<path fill-rule="evenodd" clip-rule="evenodd" d="M20.7649 124.974C20.3191 125.787 19.9115 132.451 19.7495 140.456C19.6677 146.185 19.8713 146.998 21.5371 146.998C23.1217 146.998 23.3663 145.617 23.4882 135.295C23.6502 124.974 23.5283 124.242 21.9027 124.242C21.4248 124.281 20.9981 124.556 20.7649 124.974Z" fill="black"/>
<path d="M44.184 212.48V210.16H36.296V222H39.112V217.488H43.368V215.168H39.112V212.48H44.184ZM47.3456 212.272C48.2576 212.272 48.9136 211.616 48.9136 210.704C48.9136 209.792 48.2576 209.136 47.3456 209.136C46.4336 209.136 45.7616 209.792 45.7616 210.704C45.7616 211.616 46.4336 212.272 47.3456 212.272ZM45.9696 222H48.6896V213.28H45.9696V222ZM56.2913 213.12C55.2673 213.12 54.2913 213.488 53.6033 214.256L53.5713 213.28H50.9473V222H53.6673V216.944C53.6673 216.032 54.3233 215.44 55.3313 215.44C56.3233 215.44 56.9793 216.032 56.9793 216.944V222H59.6993V216.528C59.6993 214.48 58.3393 213.12 56.2913 213.12ZM68.1348 209.52V214.288C67.5428 213.552 66.6788 213.12 65.5428 213.12C63.2388 213.12 61.3828 214.96 61.3828 217.68C61.3828 220.384 63.2388 222.16 65.5428 222.16C66.7268 222.16 67.6068 221.712 68.1988 220.928L68.2468 222H70.8548V209.52H68.1348ZM66.1668 219.824C64.9828 219.824 64.1988 218.944 64.1988 217.648C64.1988 216.336 64.9828 215.44 66.1668 215.44C67.3508 215.44 68.1348 216.336 68.1348 217.632C68.1348 218.96 67.3508 219.824 66.1668 219.824ZM84.6654 222H87.9614L84.9534 217.344C86.2174 216.688 86.9854 215.52 86.9854 214.032C86.9854 211.712 85.2894 210.16 82.7454 210.16H77.4654V222H80.2814V217.904H82.1694L84.6654 222ZM80.2814 212.48H82.4414C83.4334 212.48 84.0894 213.104 84.0894 214.032C84.0894 214.96 83.3214 215.584 82.1854 215.584H80.2814V212.48ZM97.6034 217.504C97.6034 214.864 95.8114 213.12 93.1394 213.12C90.4514 213.12 88.6754 214.976 88.6754 217.728C88.6754 220.4 90.5154 222.16 93.2674 222.16C94.9634 222.16 96.3554 221.392 97.1074 220.256L94.9954 219.232C94.5794 219.728 93.9714 220.032 93.2354 220.032C92.1954 220.032 91.7154 219.488 91.5554 218.592H97.5394C97.5714 218.288 97.6034 217.872 97.6034 217.504ZM93.1394 215.248C94.0514 215.248 94.5794 215.776 94.7554 216.768H91.5714C91.7474 215.792 92.2434 215.248 93.1394 215.248ZM103.639 222.16C104.983 222.16 106.199 221.76 107.047 220.928L105.511 219.12C105.079 219.616 104.503 219.824 103.751 219.824C102.503 219.824 101.719 218.944 101.719 217.632C101.719 216.32 102.519 215.44 103.751 215.44C104.391 215.44 104.855 215.664 105.223 216L106.759 214.16C105.943 213.52 104.871 213.12 103.703 213.12C100.807 213.12 98.887 214.928 98.887 217.632C98.887 220.352 100.791 222.16 103.639 222.16ZM112.524 222.16C115.356 222.16 117.276 220.352 117.276 217.632C117.276 214.928 115.356 213.12 112.524 213.12C109.644 213.12 107.724 214.928 107.724 217.632C107.724 220.352 109.644 222.16 112.524 222.16ZM112.508 219.824C111.324 219.824 110.54 218.944 110.54 217.632C110.54 216.32 111.324 215.44 112.508 215.44C113.676 215.44 114.46 216.32 114.46 217.632C114.46 218.944 113.676 219.824 112.508 219.824ZM129.376 213.12C128.32 213.12 127.328 213.488 126.656 214.256C126.096 213.536 125.232 213.12 124.176 213.12C123.232 213.12 122.336 213.456 121.712 214.176L121.68 213.28H119.056V222H121.776V216.944C121.776 216.032 122.352 215.44 123.216 215.44C124.08 215.44 124.64 216.032 124.64 216.944V222H127.36V216.944C127.36 216.032 127.936 215.44 128.8 215.44C129.664 215.44 130.224 216.032 130.224 216.944V222H132.944V216.528C132.944 214.48 131.504 213.12 129.376 213.12ZM145.432 213.12C144.376 213.12 143.384 213.488 142.712 214.256C142.152 213.536 141.288 213.12 140.232 213.12C139.288 213.12 138.392 213.456 137.768 214.176L137.736 213.28H135.112V222H137.832V216.944C137.832 216.032 138.408 215.44 139.272 215.44C140.136 215.44 140.696 216.032 140.696 216.944V222H143.416V216.944C143.416 216.032 143.992 215.44 144.856 215.44C145.72 215.44 146.28 216.032 146.28 216.944V222H149V216.528C149 214.48 147.56 213.12 145.432 213.12ZM159.648 217.504C159.648 214.864 157.856 213.12 155.184 213.12C152.496 213.12 150.72 214.976 150.72 217.728C150.72 220.4 152.56 222.16 155.312 222.16C157.008 222.16 158.4 221.392 159.152 220.256L157.04 219.232C156.624 219.728 156.016 220.032 155.28 220.032C154.24 220.032 153.76 219.488 153.6 218.592H159.584C159.616 218.288 159.648 217.872 159.648 217.504ZM155.184 215.248C156.096 215.248 156.624 215.776 156.8 216.768H153.616C153.792 215.792 154.288 215.248 155.184 215.248ZM166.739 213.12C165.715 213.12 164.739 213.488 164.051 214.256L164.019 213.28H161.395V222H164.115V216.944C164.115 216.032 164.771 215.44 165.779 215.44C166.771 215.44 167.427 216.032 167.427 216.944V222H170.147V216.528C170.147 214.48 168.787 213.12 166.739 213.12ZM178.583 209.52V214.288C177.991 213.552 177.127 213.12 175.991 213.12C173.687 213.12 171.831 214.96 171.831 217.68C171.831 220.384 173.687 222.16 175.991 222.16C177.175 222.16 178.055 221.712 178.647 220.928L178.695 222H181.303V209.52H178.583ZM176.615 219.824C175.431 219.824 174.647 218.944 174.647 217.648C174.647 216.336 175.431 215.44 176.615 215.44C177.799 215.44 178.583 216.336 178.583 217.632C178.583 218.96 177.799 219.824 176.615 219.824ZM187.218 213.12C185.634 213.12 184.498 213.488 183.506 214.208L184.658 215.808C185.186 215.44 185.778 215.248 186.514 215.248C187.666 215.248 188.322 215.744 188.354 216.672C187.794 216.56 187.234 216.512 186.738 216.512C184.466 216.512 182.962 217.648 182.962 219.36C182.962 221.04 184.194 222.16 186.05 222.16C186.962 222.16 187.842 221.76 188.418 221.008L188.45 222H191.074V216.528C191.074 214.464 189.522 213.12 187.218 213.12ZM186.834 220.224C186.098 220.224 185.778 219.872 185.778 219.312C185.778 218.752 186.29 218.368 187.09 218.368C187.474 218.368 187.906 218.416 188.354 218.496C188.338 219.584 187.65 220.224 186.834 220.224ZM197.557 219.824C196.965 219.824 196.549 219.36 196.549 218.672V215.504H198.821V213.28H196.549V210.72H193.829V213.28H192.437V215.504H193.829V219.248C193.829 220.992 194.981 222.16 196.677 222.16C197.429 222.16 198.261 222.032 198.949 221.728V219.552C198.485 219.744 198.021 219.824 197.557 219.824ZM202.026 212.272C202.938 212.272 203.594 211.616 203.594 210.704C203.594 209.792 202.938 209.136 202.026 209.136C201.114 209.136 200.442 209.792 200.442 210.704C200.442 211.616 201.114 212.272 202.026 212.272ZM200.65 222H203.37V213.28H200.65V222ZM209.963 222.16C212.795 222.16 214.715 220.352 214.715 217.632C214.715 214.928 212.795 213.12 209.963 213.12C207.083 213.12 205.163 214.928 205.163 217.632C205.163 220.352 207.083 222.16 209.963 222.16ZM209.947 219.824C208.763 219.824 207.979 218.944 207.979 217.632C207.979 216.32 208.763 215.44 209.947 215.44C211.115 215.44 211.899 216.32 211.899 217.632C211.899 218.944 211.115 219.824 209.947 219.824ZM221.84 213.12C220.816 213.12 219.84 213.488 219.152 214.256L219.12 213.28H216.496V222H219.216V216.944C219.216 216.032 219.872 215.44 220.88 215.44C221.872 215.44 222.528 216.032 222.528 216.944V222H225.248V216.528C225.248 214.48 223.888 213.12 221.84 213.12ZM230.499 222.16C232.771 222.16 234.307 221.024 234.307 219.296C234.307 217.712 233.139 217.008 231.555 216.608L230.947 216.448C230.291 216.272 229.811 216.096 229.811 215.744C229.811 215.424 230.227 215.248 230.835 215.248C231.587 215.248 232.291 215.424 232.979 215.792L234.115 214.032C233.235 213.424 232.051 213.12 230.659 213.12C228.483 213.12 227.043 214.336 227.043 216.176C227.043 217.6 228.083 218.176 229.603 218.544L230.227 218.704C231.011 218.912 231.539 219.104 231.539 219.488C231.539 219.856 231.123 220.048 230.547 220.048C229.715 220.048 228.915 219.888 228.051 219.424L227.027 221.072C227.907 221.808 229.123 222.16 230.499 222.16Z" fill="black"/>
</svg>
