<svg width="161" height="174" viewBox="0 0 161 174" fill="none" xmlns="http://www.w3.org/2000/svg">
<path fill-rule="evenodd" clip-rule="evenodd" d="M124.37 0.595357C123.295 1.77467 123.642 2.64208 125.827 4.34102C129.121 6.91109 130.405 9.16181 131.966 15.3348C132.868 18.9756 133.458 20.364 134.29 21.0923C134.706 21.4394 134.949 21.3349 135.539 20.572C136.545 19.2871 136.545 15.0232 135.539 11.4159C134.082 6.1445 131.69 2.81529 127.84 0.734061C126.069 -0.202017 125.099 -0.236862 124.37 0.595357Z" fill="white"/>
<path fill-rule="evenodd" clip-rule="evenodd" d="M116.15 6.90802C115.387 7.67123 115.491 8.26089 116.705 9.85631C117.694 11.4785 118.586 13.1578 119.376 14.8855C120.048 16.4647 120.873 17.9745 121.839 19.3937C122.393 19.845 122.532 19.8098 123.124 19.0818C124.234 17.7289 123.852 15.3361 121.839 11.2433C120.729 8.95474 118.336 6.21484 117.434 6.21484C116.944 6.30517 116.495 6.54773 116.15 6.90802Z" fill="white"/>
<path fill-rule="evenodd" clip-rule="evenodd" d="M92.7395 8.95505C90.139 9.6489 85.7685 12.6672 84.555 14.6432C83.6182 16.2038 83.7228 17.3479 84.9711 19.4261C86.2888 21.6457 88.1271 25.322 87.9881 25.4225C87.9167 25.4574 87.0171 25.7344 85.9765 26.1164C83.6206 26.8796 82.0925 27.8847 81.4335 29.064C80.9822 29.862 80.948 30.1739 81.3293 31.3184C81.649 32.3019 81.8814 33.3117 82.0232 34.3361C82.0519 34.9917 82.2299 35.6321 82.5435 36.2086C82.6818 36.3127 81.5025 38.3246 79.9071 40.7174C78.2772 43.0733 76.5434 45.9202 75.9537 47.0301C73.6299 51.7119 70.8904 58.2323 70.3007 60.6602L69.6738 63.2679L71.0301 67.0829C71.7581 69.1638 73.2497 73.222 74.3596 76.1C75.4348 78.944 78.1053 86.6783 80.2904 93.268C85.6315 109.43 85.8744 110.089 88.9282 118.239C92.8823 128.783 95.2402 135.234 96.905 140.09C98.4368 144.712 100.267 149.23 102.385 153.616C103.426 155.801 105.021 159.408 105.923 161.593C107.865 166.376 109.009 168.286 111.333 170.437C114.039 172.969 114.801 173.177 121.01 173.211C129.298 173.211 135.75 171.686 144.94 167.524C151.391 164.61 158.571 159.096 160.409 155.697C161.622 153.373 161.275 151.015 156.42 129.685C151.46 107.731 150.352 103.083 148.269 95.3476C146.57 88.9314 143.726 76.8276 142.477 70.5498C141.888 67.6715 140.743 62.5382 139.911 59.1051C139.079 55.672 138.281 52.2376 138.177 51.4744C137.622 48.2142 136.165 44.1928 135.09 43.0463C133.668 41.5209 126.732 36.2837 123.333 34.1679C120.593 32.4683 115.703 30.1445 114.766 30.1445C114.419 30.1445 114.003 29.382 113.587 27.9601C112.616 24.7693 111.506 22.4455 110.431 21.4739C109.633 20.7113 109.182 20.6071 107.032 20.6071H104.605L103.463 16.4102C102.178 11.5559 101.659 10.6185 99.717 9.6127C97.4977 8.75105 95.0816 8.52337 92.7395 8.95505ZM98.1851 11.7643C99.3645 12.1114 99.47 12.2498 99.6764 13.7758C100.023 16.0644 101.41 22.3771 102.032 24.319L102.552 25.9837L100.263 26.6776C97.4192 27.5792 92.4601 28.4466 92.1823 28.1347C91.8021 27.4493 91.4885 26.729 91.2456 25.9837C90.8643 24.9435 89.685 22.3771 88.6099 20.2962C86.8409 16.8967 86.7025 16.4464 87.1186 15.7874C88.4773 14.1486 90.1847 12.8333 92.1157 11.9375C94.0873 11.3411 96.1824 11.2812 98.1851 11.7643ZM111.293 28.204C111.675 29.7294 111.986 31.1175 111.986 31.3252C111.986 31.8455 106.888 34.3777 104.01 35.2792C100.854 36.3195 95.2003 37.0824 90.6918 37.1176C85.7661 37.1517 85.1078 36.9092 84.7959 34.9325C84.6531 34.1003 84.4833 32.9209 84.3798 32.2968L84.1714 31.1868H89.0253C96.6902 31.1868 101.892 29.9381 107.026 26.8515C108.725 25.8457 110.182 25.1174 110.32 25.2561C110.746 26.202 111.072 27.1901 111.293 28.204ZM119.097 34.3076C124.022 36.7705 134.873 45.5798 134.46 46.7933C134.253 47.4872 124.923 52.1344 121.871 53.0711C121.108 53.2795 118.992 54.0769 117.189 54.7708C104.148 59.9035 91.9398 62.2273 79.1764 61.9495C74.841 61.846 73.3153 61.7069 72.9655 61.3257C72.5142 60.9096 72.6184 60.3199 73.6935 57.1981C74.3928 55.1683 75.2507 53.197 76.2599 51.3022C80.3875 44.092 81.9481 41.6258 83.0573 40.4119L84.3422 39.0591L86.735 39.5104C88.8859 39.9265 89.8568 39.8916 95.614 39.1985C98.6784 38.8754 101.715 38.3304 104.701 37.5678C107.267 36.7705 112.192 34.0999 113.059 33.059C113.719 32.2268 115.837 32.6777 119.098 34.3076H119.097ZM135.571 50.9209C135.559 51.5515 135.629 52.1807 135.778 52.7934C135.918 53.2095 135.224 53.6957 133.074 54.7007C131.478 55.464 128.184 57.0567 125.687 58.2387C120.36 60.8098 114.868 63.0229 109.247 64.8626C104.148 66.5974 103.247 66.7706 95.8597 67.8109C91.2814 68.4354 78.3106 68.6083 75.5701 68.0535C74.1137 67.7757 73.9753 67.6374 73.524 66.2845C73.3265 65.7618 73.2097 65.2124 73.1769 64.6546C73.9232 64.6637 74.6665 64.7452 75.3972 64.8971C77.5816 65.2442 85.6978 65.0707 91.6979 64.5159C98.1141 63.9262 109.351 61.1515 116.634 58.3422C118.368 57.6832 121.039 56.7116 122.565 56.1571C126.511 54.5634 130.288 52.5762 133.837 50.2264C135.191 49.2578 135.573 49.3942 135.573 50.9202L135.571 50.9209ZM127.04 69.5802C128.254 72.1117 132.521 85.187 134.22 91.5339C135.157 95.0719 136.786 100.586 137.789 103.846C140.252 111.58 143.269 121.916 144.553 126.91C145.107 129.095 146.044 132.702 146.634 134.887C147.674 138.806 148.091 143.211 147.397 143.211C146.981 143.211 145.94 141.754 144.934 139.778C142.61 135.165 134.217 110.679 131.235 99.8236C130.194 95.9386 128.391 90.0078 127.246 86.6783C126.136 83.3487 124.819 79.0482 124.333 77.1409C123.847 75.2336 123.223 72.9791 122.911 72.1439C122.148 69.9936 122.217 69.7879 123.882 69.022C125.965 68.0538 126.347 68.1232 127.04 69.5802ZM121.006 74.47C123.261 80.5743 124.89 85.6065 126.208 90.4936C126.937 93.2677 128.116 97.534 128.809 100.031C129.885 103.915 131.688 110.953 133.596 118.759C133.873 119.901 134.775 122.543 135.573 124.655C137.238 129.095 139.388 135.234 139.388 135.685C139.388 136.482 138.694 135.373 138.174 133.742C137.827 132.771 136.51 129.06 135.226 125.522C133.908 121.984 132.59 117.927 132.278 116.505C131.932 115.083 130.058 109.048 128.116 103.155C126.139 97.2245 123.746 89.5917 122.776 86.1607C121.805 82.7296 120.451 78.0445 119.792 75.7559C119.133 73.4673 118.65 71.3857 118.752 71.108C119.099 70.204 119.896 71.3834 121.006 74.47ZM87.9187 73.4991C88.0517 74.0079 88.0984 74.5353 88.0571 75.0597C88.0571 76.3774 87.9536 76.5861 87.3981 76.5161C86.3578 76.3432 85.664 75.6145 85.3172 74.2623C84.8317 72.6317 85.0746 72.3543 86.5659 72.9774C87.007 73.1764 87.4586 73.3506 87.9187 73.4991ZM91.8731 75.2332C91.8728 75.4247 91.7175 75.5796 91.526 75.5803C91.34 75.5675 91.1918 75.4193 91.1789 75.2332C91.1793 75.0417 91.3345 74.8868 91.526 74.8861C91.7067 74.8739 91.863 75.0106 91.8748 75.1909C91.8758 75.2048 91.8758 75.219 91.8748 75.2329H91.8731V75.2332ZM82.1642 77.0364C82.1642 77.7996 80.9507 77.8686 80.6388 77.1077C80.5485 76.672 80.6097 76.2187 80.8124 75.8229C81.1936 75.129 81.2285 75.129 81.6791 75.7515C81.9589 76.1253 82.1263 76.5709 82.1615 77.0364H82.1642ZM85.9792 81.5452C85.9792 82.0656 84.87 82.2733 84.5922 81.7878C84.1416 81.0946 84.9041 80.2966 85.4938 80.8169C85.7394 80.9914 85.9116 81.2509 85.9762 81.5449L85.9792 81.5452ZM154.196 144.529C154.5 145.304 154.676 146.124 154.717 146.956C154.543 147.545 153.052 147.476 152.427 146.852C151.908 146.332 151.908 145.811 152.427 143.283C152.706 141.893 153.538 142.448 154.196 144.529ZM140.948 147.027C140.948 147.582 140.74 147.929 140.324 147.998C139.665 148.137 139.214 147.304 139.526 146.472C139.839 145.604 140.949 146.02 140.949 147.026L140.948 147.027ZM145.214 149.49C145.352 150.531 144.45 151.085 143.687 150.46C143.157 149.996 143.053 149.209 143.445 148.623C144.001 148.066 145.11 148.586 145.214 149.486L145.214 149.49ZM157.977 152.819C157.699 153.961 153.468 158.16 149.965 160.796C142.821 166.172 130.509 170.056 120.483 170.091C116.078 170.091 115.904 170.057 113.859 168.981C112.54 168.288 111.604 167.56 111.36 166.97C110.978 166.173 111.013 166.033 111.431 166.207C114.83 167.525 124.021 167.386 129.223 165.964C130.957 165.479 133.628 164.612 135.119 164.022C141.293 161.629 152.946 154.554 156.241 151.155L157.593 149.768L157.906 150.808C158.069 151.466 158.094 152.15 157.98 152.818L157.977 152.819ZM140.704 152.506C140.808 153.096 140.633 153.269 140.114 153.269C139.629 153.269 139.386 153.061 139.386 152.645C139.388 151.327 140.532 151.222 140.704 152.506Z" fill="white"/>
<path fill-rule="evenodd" clip-rule="evenodd" d="M90.2083 18.2469C89.5144 19.6346 90.7631 21.4723 92.0466 20.9868C92.5321 20.8132 92.6014 20.5362 92.4279 19.6691C92.0462 17.7614 90.8321 16.9982 90.2083 18.2469Z" fill="white"/>
<path fill-rule="evenodd" clip-rule="evenodd" d="M29.3747 21.1981C28.5953 21.7492 28.4099 22.8277 28.961 23.6072C29.1369 23.8562 29.3754 24.0541 29.6525 24.1809C30.6582 24.6664 31.6291 24.2851 32.2225 23.1752C33.0862 21.6142 30.8318 20.0878 29.3747 21.1981Z" fill="white"/>
<path fill-rule="evenodd" clip-rule="evenodd" d="M70.5432 23.5905C64.2311 26.261 49.9072 32.1248 45.2251 33.9611C42.9358 34.8968 39.1201 36.4926 36.7642 37.5677C34.3707 38.6428 32.394 39.5102 32.3246 39.5102C32.2895 38.8955 32.3243 38.2788 32.4288 37.6719C33.1234 31.9144 28.5424 27.3023 22.1611 27.2709C20.2537 27.236 19.5947 27.4092 17.6874 28.413C14.6349 30.0436 11.9992 32.5406 10.8551 34.8985C9.5022 37.6733 9.29381 41.766 10.3689 44.2975C10.6788 45.0817 11.099 45.8175 11.6176 46.4826C12.0337 46.8297 11.826 47.0029 10.3689 47.5236C7.52044 48.6981 4.92838 50.4177 2.7389 52.5856C0.553814 55.0477 -0.555475 59.2447 0.276745 61.811C1.17832 64.5168 4.36951 66.1463 7.8716 65.6951C9.64057 65.4873 9.74477 65.5222 9.5022 66.1112C8.33101 68.7015 7.76199 71.5236 7.83743 74.3657C7.80258 77.4524 7.90881 78.042 8.739 79.6026C9.6788 81.626 11.3909 83.1876 13.4921 83.9379C16.96 84.9789 21.3306 81.9271 23.5498 76.8627L24.7291 74.1922L25.7701 76.3431C27.2955 79.3949 30.1396 82.2041 32.7411 83.2099C36.1048 84.4948 36.9722 84.5969 39.0883 84.0421C41.724 83.3483 44.1516 81.7535 44.9494 80.1581C45.8861 78.2507 45.7816 72.6316 44.7758 70.0304C44.4822 69.3399 44.2274 68.6339 44.0126 67.9153C44.4131 67.5719 44.8712 67.3016 45.3655 67.1173C46.9788 66.3415 48.0888 64.8013 48.3138 63.0252C48.5908 61.4298 47.7241 57.1634 46.7873 55.6722L46.0935 54.5301L48.105 52.6569C52.371 48.6335 65.5505 36.9804 68.6717 34.4489C74.4292 29.8359 77.6542 26.3328 77.6542 24.8074C77.6542 23.9741 75.8511 21.8242 75.1555 21.8242C73.5841 22.3202 72.0439 22.9102 70.5432 23.5905ZM15.7797 35.2788C15.3551 36.294 15.0412 37.3522 14.843 38.4348C14.461 40.3766 14.4959 40.9663 15.0507 43.2177C15.3978 44.6054 15.6062 45.8541 15.4668 45.9576C14.7036 46.7208 13.143 43.5648 13.143 41.2758C13.143 39.9575 13.4549 38.8824 14.4279 36.9057C14.8338 35.9753 15.3589 35.1018 15.9898 34.3072C16.161 34.3072 16.0568 34.7233 15.7797 35.2788ZM45.7102 39.6483C42.9703 41.4172 39.8836 43.4633 38.8434 44.1571C38.1245 44.7092 37.3142 45.1308 36.4499 45.4028C35.8612 45.2451 35.3315 44.9197 34.9245 44.466L33.9529 43.5303L39.7453 41.0316C42.9706 39.6787 46.5776 38.0833 47.8263 37.4936C49.0749 36.904 50.2191 36.4185 50.3926 36.3837C48.8997 37.566 47.3361 38.6564 45.7102 39.6483Z" fill="white"/>
<path fill-rule="evenodd" clip-rule="evenodd" d="M37.3515 24.4923C33.8142 27.7877 32.7391 30.2847 34.2303 31.6369C35.7216 32.9891 37.6293 32.053 41.0627 28.3425C43.8026 25.3601 44.0451 24.1808 42.1029 23.3455C40.0921 22.5156 39.294 22.7234 37.3515 24.4923Z" fill="white"/>
</svg>
