<svg width="122" height="41" viewBox="0 0 122 41" fill="none" xmlns="http://www.w3.org/2000/svg">
<path d="M109.148 20.2713L121.566 0.0502238H113.322C112.732 1.04909 112.048 2.14759 111.309 3.29066C110.573 4.49043 109.886 5.63997 109.15 6.83488C108.413 8.02979 107.726 9.18419 107.039 10.3297C106.352 11.4752 105.665 12.5267 105.076 13.4753L96.8782 0H88.5345C90.5469 3.29552 92.608 6.64289 94.7685 10.0867C96.9291 13.5304 98.9893 16.877 100.953 20.1223L88.4851 40.4933H96.6822L105.124 26.9118L113.565 40.4933H121.712L109.148 20.2713Z" fill="#FBBA12"/>
<path d="M51.4826 16.7342C49.5198 15.3772 47.2306 14.59 44.861 14.4573C42.4915 14.3245 40.1311 14.8512 38.0338 15.9808C35.9364 17.1104 34.1814 18.8001 32.9573 20.8682C31.7332 22.9364 31.0864 25.3048 31.0864 27.7189C31.0864 30.133 31.7332 32.5014 32.9573 34.5696C34.1814 36.6377 35.9364 38.3274 38.0338 39.457C40.1311 40.5866 42.4915 41.1133 44.861 40.9805C47.2306 40.8478 49.5198 40.0606 51.4826 38.7036V40.3513H57.2252V6.74805H51.4826V16.7342ZM44.12 34.5096C42.7998 34.5096 41.5092 34.1114 40.4115 33.3652C39.3137 32.6191 38.4581 31.5586 37.9529 30.3178C37.4477 29.0771 37.3155 27.7118 37.573 26.3946C37.8306 25.0774 38.4664 23.8675 39.3999 22.9178C40.3335 21.9682 41.5229 21.3215 42.8177 21.0595C44.1126 20.7974 45.4548 20.9319 46.6745 21.4459C47.8943 21.9598 48.9368 22.8301 49.6703 23.9468C50.4038 25.0635 50.7953 26.3763 50.7953 27.7193C50.7952 28.6111 50.6224 29.4941 50.2868 30.318C49.9512 31.1418 49.4593 31.8904 48.8393 32.5208C48.2193 33.1513 47.4833 33.6514 46.6733 33.9925C45.8632 34.3336 44.9951 34.509 44.1184 34.5088L44.12 34.5096Z" fill="#FBBA12"/>
<path d="M22.3258 15.6328V25.9212C22.2212 27.9271 21.3752 29.8187 19.9574 31.2169C18.5396 32.615 16.6547 33.4165 14.6805 33.4607C12.7063 33.5048 10.7886 32.7884 9.31174 31.455C7.83489 30.1216 6.90798 28.2696 6.71677 26.2704H6.66819V15.6328H0.287598V26.2679C0.476348 29.9653 2.05318 33.448 4.69271 35.9972C7.33223 38.5464 10.833 39.9677 14.4727 39.9677C18.1124 39.9677 21.6132 38.5464 24.2527 35.9972C26.8922 33.448 28.4691 29.9653 28.6578 26.2679V15.6328H22.3258Z" fill="#FBBA12"/>
<path d="M81.9638 16.1348V26.4232C81.8593 28.4291 81.0134 30.3207 79.5956 31.719C78.1779 33.1173 76.293 33.9189 74.3188 33.9632C72.3446 34.0074 70.4268 33.2911 68.9499 31.9577C67.473 30.6243 66.546 28.7724 66.3547 26.7731H66.3053V16.1348H59.9255V26.7699C60.1143 30.4673 61.6911 33.95 64.3306 36.4992C66.9702 39.0484 70.471 40.4696 74.1106 40.4696C77.7503 40.4696 81.2511 39.0484 83.8906 36.4992C86.5302 33.95 88.107 30.4673 88.2958 26.7699V16.1348H81.9638Z" fill="#FBBA12"/>
</svg>
