<svg width="22" height="20" viewBox="0 0 22 20" fill="black" xmlns="http://www.w3.org/2000/svg">
<path d="M9.83971 0V19.6794H11.4797V0H9.83971ZM0 1.63995V3.2799H6.55981V1.63995H0ZM15.5795 1.63995C15.5795 1.63995 14.7596 1.63995 14.7596 2.45993V7.37979C14.7596 7.37979 14.7596 8.19976 15.5795 8.19976H20.4994C20.4994 8.19976 21.3194 8.19976 21.3194 7.37979V2.45993C21.3194 2.45993 21.3194 1.63995 20.4994 1.63995H15.5795ZM16.3995 3.2799H19.6794V6.55981H16.3995V3.2799ZM0 6.55981V8.19976H6.55981V6.55981H0ZM0 11.4797V13.1196H6.55981V11.4797H0ZM15.5795 11.4797C15.5795 11.4797 14.7596 11.4797 14.7596 12.2996V17.2195C14.7596 17.2195 14.7596 18.0395 15.5795 18.0395H20.4994C20.4994 18.0395 21.3194 18.0395 21.3194 17.2195V12.2996C21.3194 12.2996 21.3194 11.4797 20.4994 11.4797H15.5795ZM16.3995 13.1196H19.6794V16.3995H16.3995V13.1196ZM0 16.3995V18.0395H6.55981V16.3995H0Z" fill="black"/>
</svg>
